<mxfile host="app.diagrams.net" modified="2023-10-17T15:25:21.032Z" agent="Mozilla/5.0 (Windows NT 10.0; Win64; x64; rv:109.0) Gecko/20100101 Firefox/118.0" etag="BMoatkwRiF3RrHbjUZdr" version="22.0.4" type="device">
  <diagram name="Seite-1" id="E6llAYv0H45IrwT8ym5m">
    <mxGraphModel dx="2074" dy="2283" grid="1" gridSize="10" guides="1" tooltips="1" connect="1" arrows="1" fold="1" page="1" pageScale="1" pageWidth="827" pageHeight="1169" math="0" shadow="0">
      <root>
        <mxCell id="0" />
        <mxCell id="1" parent="0" />
        <mxCell id="Ei1wUv65lXnRTl3qjksU-1" value="&amp;nbsp; &lt;b&gt;Qunicorn Core&lt;/b&gt;" style="rounded=0;whiteSpace=wrap;html=1;fillColor=default;verticalAlign=top;align=left;strokeWidth=2;" parent="1" vertex="1">
          <mxGeometry x="62.41" y="-390" width="711.59" height="500" as="geometry" />
        </mxCell>
        <mxCell id="Ei1wUv65lXnRTl3qjksU-3" value="Device API" style="rounded=0;whiteSpace=wrap;html=1;" parent="1" vertex="1">
          <mxGeometry x="253.90999999999997" y="-510" width="160" height="20" as="geometry" />
        </mxCell>
        <mxCell id="Ei1wUv65lXnRTl3qjksU-4" value="&lt;b&gt;&amp;nbsp; Qunicorn API&lt;/b&gt;" style="rounded=0;whiteSpace=wrap;html=1;align=left;verticalAlign=top;strokeWidth=2;" parent="1" vertex="1">
          <mxGeometry x="63.91" y="-540" width="706.09" height="70" as="geometry" />
        </mxCell>
        <mxCell id="Ei1wUv65lXnRTl3qjksU-5" style="edgeStyle=orthogonalEdgeStyle;rounded=0;orthogonalLoop=1;jettySize=auto;html=1;exitX=0.5;exitY=1;exitDx=0;exitDy=0;entryX=0.5;entryY=0;entryDx=0;entryDy=0;" parent="1" source="Ei1wUv65lXnRTl3qjksU-6" target="Ei1wUv65lXnRTl3qjksU-28" edge="1">
          <mxGeometry relative="1" as="geometry" />
        </mxCell>
        <mxCell id="Ei1wUv65lXnRTl3qjksU-6" value="Job API" style="rounded=0;whiteSpace=wrap;html=1;" parent="1" vertex="1">
          <mxGeometry x="73.91" y="-510" width="160" height="30" as="geometry" />
        </mxCell>
        <mxCell id="Ei1wUv65lXnRTl3qjksU-7" style="edgeStyle=orthogonalEdgeStyle;rounded=0;orthogonalLoop=1;jettySize=auto;html=1;exitX=0.5;exitY=1;exitDx=0;exitDy=0;entryX=0.5;entryY=0;entryDx=0;entryDy=0;" parent="1" source="Ei1wUv65lXnRTl3qjksU-8" target="Ei1wUv65lXnRTl3qjksU-31" edge="1">
          <mxGeometry relative="1" as="geometry" />
        </mxCell>
        <mxCell id="Ei1wUv65lXnRTl3qjksU-8" value="Deployment API" style="rounded=0;whiteSpace=wrap;html=1;" parent="1" vertex="1">
          <mxGeometry x="248.91" y="-510" width="160" height="30" as="geometry" />
        </mxCell>
        <mxCell id="Ei1wUv65lXnRTl3qjksU-9" value="Mapper" style="rounded=0;whiteSpace=wrap;html=1;fillColor=none;verticalAlign=middle;align=center;" parent="1" vertex="1">
          <mxGeometry x="623.91" y="-215" width="110" height="50" as="geometry" />
        </mxCell>
        <mxCell id="Ei1wUv65lXnRTl3qjksU-11" value="&amp;nbsp;Pilot Manager" style="rounded=0;whiteSpace=wrap;html=1;fillColor=none;verticalAlign=top;align=left;" parent="1" vertex="1">
          <mxGeometry x="93.91" y="-90" width="340" height="160" as="geometry" />
        </mxCell>
        <mxCell id="Ei1wUv65lXnRTl3qjksU-13" style="edgeStyle=orthogonalEdgeStyle;rounded=0;orthogonalLoop=1;jettySize=auto;html=1;entryX=0.979;entryY=-0.057;entryDx=0;entryDy=0;entryPerimeter=0;exitX=0.984;exitY=0.997;exitDx=0;exitDy=0;exitPerimeter=0;" parent="1" source="Ei1wUv65lXnRTl3qjksU-14" edge="1">
          <mxGeometry relative="1" as="geometry">
            <mxPoint x="740" y="-290" as="sourcePoint" />
            <mxPoint x="754.1469999999999" y="208.28999999999996" as="targetPoint" />
            <Array as="points">
              <mxPoint x="755" y="-288" />
              <mxPoint x="754" y="-288" />
            </Array>
          </mxGeometry>
        </mxCell>
        <mxCell id="mg8s2DDJ6v8Yepw18GyZ-6" style="edgeStyle=orthogonalEdgeStyle;rounded=0;orthogonalLoop=1;jettySize=auto;html=1;" edge="1" parent="1" source="Ei1wUv65lXnRTl3qjksU-14" target="Ei1wUv65lXnRTl3qjksU-9">
          <mxGeometry relative="1" as="geometry">
            <Array as="points">
              <mxPoint x="679" y="-280" />
              <mxPoint x="679" y="-280" />
            </Array>
          </mxGeometry>
        </mxCell>
        <mxCell id="Ei1wUv65lXnRTl3qjksU-14" value="&amp;nbsp;Core Services" style="rounded=0;whiteSpace=wrap;html=1;fillColor=none;verticalAlign=top;align=left;" parent="1" vertex="1">
          <mxGeometry x="70.91" y="-354" width="695.09" height="64" as="geometry" />
        </mxCell>
        <mxCell id="Ei1wUv65lXnRTl3qjksU-17" value="&lt;font size=&quot;1&quot;&gt;&lt;b&gt;&lt;font style=&quot;font-size: 12px;&quot;&gt;&amp;nbsp; Qunicorn Database Services&lt;/font&gt;&lt;/b&gt;&lt;/font&gt;" style="rounded=0;whiteSpace=wrap;html=1;fillColor=none;verticalAlign=top;align=left;strokeWidth=2;" parent="1" vertex="1">
          <mxGeometry x="63.91" y="180" width="710.09" height="70" as="geometry" />
        </mxCell>
        <mxCell id="Ei1wUv65lXnRTl3qjksU-18" value="Database Services" style="rounded=0;whiteSpace=wrap;html=1;fillColor=none;verticalAlign=middle;align=center;" parent="1" vertex="1">
          <mxGeometry x="80" y="210" width="680" height="30" as="geometry" />
        </mxCell>
        <mxCell id="Ei1wUv65lXnRTl3qjksU-19" style="edgeStyle=orthogonalEdgeStyle;rounded=0;orthogonalLoop=1;jettySize=auto;html=1;exitX=0.5;exitY=1;exitDx=0;exitDy=0;entryX=0.5;entryY=0;entryDx=0;entryDy=0;" parent="1" source="Ei1wUv65lXnRTl3qjksU-24" target="Ei1wUv65lXnRTl3qjksU-26" edge="1">
          <mxGeometry relative="1" as="geometry" />
        </mxCell>
        <mxCell id="Ei1wUv65lXnRTl3qjksU-20" style="edgeStyle=orthogonalEdgeStyle;rounded=0;orthogonalLoop=1;jettySize=auto;html=1;exitX=1;exitY=0.5;exitDx=0;exitDy=0;entryX=0;entryY=0.5;entryDx=0;entryDy=0;" parent="1" source="Ei1wUv65lXnRTl3qjksU-24" target="Ei1wUv65lXnRTl3qjksU-37" edge="1">
          <mxGeometry relative="1" as="geometry" />
        </mxCell>
        <mxCell id="Ei1wUv65lXnRTl3qjksU-21" style="edgeStyle=orthogonalEdgeStyle;rounded=0;orthogonalLoop=1;jettySize=auto;html=1;exitX=1;exitY=0.5;exitDx=0;exitDy=0;entryX=0;entryY=0.5;entryDx=0;entryDy=0;" parent="1" source="Ei1wUv65lXnRTl3qjksU-24" target="Ei1wUv65lXnRTl3qjksU-38" edge="1">
          <mxGeometry relative="1" as="geometry" />
        </mxCell>
        <mxCell id="Ei1wUv65lXnRTl3qjksU-22" style="edgeStyle=orthogonalEdgeStyle;rounded=0;orthogonalLoop=1;jettySize=auto;html=1;exitX=0.61;exitY=-0.007;exitDx=0;exitDy=0;entryX=0.269;entryY=0.997;entryDx=0;entryDy=0;entryPerimeter=0;exitPerimeter=0;" parent="1" source="Ei1wUv65lXnRTl3qjksU-24" target="Ei1wUv65lXnRTl3qjksU-14" edge="1">
          <mxGeometry relative="1" as="geometry" />
        </mxCell>
        <mxCell id="mg8s2DDJ6v8Yepw18GyZ-7" style="edgeStyle=orthogonalEdgeStyle;rounded=0;orthogonalLoop=1;jettySize=auto;html=1;entryX=0;entryY=0.25;entryDx=0;entryDy=0;" edge="1" parent="1" source="Ei1wUv65lXnRTl3qjksU-24" target="Ei1wUv65lXnRTl3qjksU-18">
          <mxGeometry relative="1" as="geometry">
            <Array as="points">
              <mxPoint x="10" y="-225" />
              <mxPoint x="10" y="218" />
            </Array>
          </mxGeometry>
        </mxCell>
        <mxCell id="Ei1wUv65lXnRTl3qjksU-24" value="Job Manager Service" style="rounded=0;whiteSpace=wrap;html=1;fillColor=none;verticalAlign=middle;align=center;" parent="1" vertex="1">
          <mxGeometry x="123.90999999999997" y="-245" width="220" height="40" as="geometry" />
        </mxCell>
        <mxCell id="Ei1wUv65lXnRTl3qjksU-25" style="edgeStyle=orthogonalEdgeStyle;rounded=0;orthogonalLoop=1;jettySize=auto;html=1;exitX=0.5;exitY=1;exitDx=0;exitDy=0;entryX=0.41;entryY=-0.001;entryDx=0;entryDy=0;entryPerimeter=0;" parent="1" source="Ei1wUv65lXnRTl3qjksU-26" target="Ei1wUv65lXnRTl3qjksU-11" edge="1">
          <mxGeometry relative="1" as="geometry" />
        </mxCell>
        <mxCell id="Ei1wUv65lXnRTl3qjksU-26" value="Celery Queue" style="rounded=0;whiteSpace=wrap;html=1;fillColor=none;verticalAlign=middle;align=center;" parent="1" vertex="1">
          <mxGeometry x="178.90999999999997" y="-170" width="110" height="50" as="geometry" />
        </mxCell>
        <mxCell id="Ei1wUv65lXnRTl3qjksU-27" style="edgeStyle=orthogonalEdgeStyle;rounded=0;orthogonalLoop=1;jettySize=auto;html=1;exitX=0.5;exitY=1;exitDx=0;exitDy=0;entryX=0.138;entryY=0.009;entryDx=0;entryDy=0;entryPerimeter=0;" parent="1" source="Ei1wUv65lXnRTl3qjksU-28" target="Ei1wUv65lXnRTl3qjksU-24" edge="1">
          <mxGeometry relative="1" as="geometry">
            <Array as="points">
              <mxPoint x="153.90999999999997" y="-275" />
            </Array>
          </mxGeometry>
        </mxCell>
        <mxCell id="Ei1wUv65lXnRTl3qjksU-28" value="Job Service" style="rounded=0;whiteSpace=wrap;html=1;" parent="1" vertex="1">
          <mxGeometry x="74.90999999999997" y="-320" width="159" height="20" as="geometry" />
        </mxCell>
        <mxCell id="Ei1wUv65lXnRTl3qjksU-29" value="Device Service" style="rounded=0;whiteSpace=wrap;html=1;" parent="1" vertex="1">
          <mxGeometry x="423.90999999999997" y="-320" width="160" height="20" as="geometry" />
        </mxCell>
        <mxCell id="Ei1wUv65lXnRTl3qjksU-30" value="Provider Service" style="rounded=0;whiteSpace=wrap;html=1;" parent="1" vertex="1">
          <mxGeometry x="598.91" y="-320" width="160" height="20" as="geometry" />
        </mxCell>
        <mxCell id="Ei1wUv65lXnRTl3qjksU-31" value="Deployment Service" style="rounded=0;whiteSpace=wrap;html=1;" parent="1" vertex="1">
          <mxGeometry x="248.90999999999997" y="-320" width="160" height="20" as="geometry" />
        </mxCell>
        <mxCell id="mg8s2DDJ6v8Yepw18GyZ-8" style="edgeStyle=orthogonalEdgeStyle;rounded=0;orthogonalLoop=1;jettySize=auto;html=1;" edge="1" parent="1" source="Ei1wUv65lXnRTl3qjksU-33" target="Ei1wUv65lXnRTl3qjksU-29">
          <mxGeometry relative="1" as="geometry">
            <Array as="points">
              <mxPoint x="500" y="-440" />
              <mxPoint x="500" y="-440" />
            </Array>
          </mxGeometry>
        </mxCell>
        <mxCell id="Ei1wUv65lXnRTl3qjksU-33" value="&lt;div&gt;Device API&lt;/div&gt;" style="rounded=0;whiteSpace=wrap;html=1;" parent="1" vertex="1">
          <mxGeometry x="423.91" y="-510" width="160" height="30" as="geometry" />
        </mxCell>
        <mxCell id="Ei1wUv65lXnRTl3qjksU-34" style="edgeStyle=orthogonalEdgeStyle;rounded=0;orthogonalLoop=1;jettySize=auto;html=1;exitX=0.5;exitY=1;exitDx=0;exitDy=0;entryX=0.5;entryY=0;entryDx=0;entryDy=0;" parent="1" source="Ei1wUv65lXnRTl3qjksU-35" target="Ei1wUv65lXnRTl3qjksU-30" edge="1">
          <mxGeometry relative="1" as="geometry" />
        </mxCell>
        <mxCell id="Ei1wUv65lXnRTl3qjksU-35" value="Provider API" style="rounded=0;whiteSpace=wrap;html=1;" parent="1" vertex="1">
          <mxGeometry x="598.91" y="-510" width="160" height="30" as="geometry" />
        </mxCell>
        <mxCell id="Ei1wUv65lXnRTl3qjksU-36" value="&amp;nbsp;Transpiler" style="rounded=0;whiteSpace=wrap;html=1;fillColor=none;verticalAlign=top;align=left;horizontal=1;" parent="1" vertex="1">
          <mxGeometry x="388.91" y="-245" width="191.09" height="105" as="geometry" />
        </mxCell>
        <mxCell id="Ei1wUv65lXnRTl3qjksU-37" value="Transpile Manager" style="rounded=0;whiteSpace=wrap;html=1;" parent="1" vertex="1">
          <mxGeometry x="404.99999999999994" y="-180" width="160" height="25" as="geometry" />
        </mxCell>
        <mxCell id="Ei1wUv65lXnRTl3qjksU-38" value="PreProcessing Manager" style="rounded=0;whiteSpace=wrap;html=1;" parent="1" vertex="1">
          <mxGeometry x="404.99999999999994" y="-215" width="160" height="20" as="geometry" />
        </mxCell>
        <mxCell id="mg8s2DDJ6v8Yepw18GyZ-4" style="edgeStyle=orthogonalEdgeStyle;rounded=0;orthogonalLoop=1;jettySize=auto;html=1;entryX=0.5;entryY=1;entryDx=0;entryDy=0;endArrow=block;endFill=0;" edge="1" parent="1" source="Ei1wUv65lXnRTl3qjksU-39" target="Ei1wUv65lXnRTl3qjksU-41">
          <mxGeometry relative="1" as="geometry">
            <Array as="points">
              <mxPoint x="179" y="-20" />
              <mxPoint x="255" y="-20" />
            </Array>
          </mxGeometry>
        </mxCell>
        <mxCell id="Ei1wUv65lXnRTl3qjksU-39" value="IBM Pilot" style="rounded=0;whiteSpace=wrap;html=1;fillColor=none;verticalAlign=middle;align=center;" parent="1" vertex="1">
          <mxGeometry x="123.90999999999997" width="110" height="50" as="geometry" />
        </mxCell>
        <mxCell id="mg8s2DDJ6v8Yepw18GyZ-5" style="edgeStyle=orthogonalEdgeStyle;rounded=0;orthogonalLoop=1;jettySize=auto;html=1;entryX=0.5;entryY=1;entryDx=0;entryDy=0;endArrow=block;endFill=0;" edge="1" parent="1" source="Ei1wUv65lXnRTl3qjksU-40" target="Ei1wUv65lXnRTl3qjksU-41">
          <mxGeometry relative="1" as="geometry">
            <Array as="points">
              <mxPoint x="344" y="-20" />
              <mxPoint x="255" y="-20" />
            </Array>
          </mxGeometry>
        </mxCell>
        <mxCell id="Ei1wUv65lXnRTl3qjksU-40" value="AWS Pilot" style="rounded=0;whiteSpace=wrap;html=1;fillColor=none;verticalAlign=middle;align=center;" parent="1" vertex="1">
          <mxGeometry x="288.90999999999997" width="110" height="50" as="geometry" />
        </mxCell>
        <mxCell id="Ei1wUv65lXnRTl3qjksU-42" value="" style="shape=image;verticalLabelPosition=bottom;labelBackgroundColor=default;verticalAlign=top;aspect=fixed;imageAspect=0;image=data:image/png,iVBORw0KGgoAAAANSUhEUgAAA0wAAANMCAYAAABvnS23AAAACXBIWXMAAAsTAAALEwEAmpwYAAAAGXRFWHRTb2Z0d2FyZQBBZG9iZSBJbWFnZVJlYWR5ccllPAAAyA5JREFUeNrsvQt4XNV57/3OjO6SJdny/YLGd7BBkrk4gSRoTAIUh8TiS8hJWqca55RT0tMUue1D2q9tPE6afie0DfY5XwJtEpAbpyUFgpw4EC6Jx1Bu5mJJYIMNhpFv+CLJkizrrpmzXmkPjGXJmstae6+99//3PPuRL5p9WXvP3uu333e9yxOLxQgAAAAAAAAAwIV40QQAAAAAAAAAAGECAAAAAAAAAAgTAAAAAAAAAECYAAAAAAAAAADCBAAAAAAAAAAQJgAAAAAAAACAMAEAAAAAAAAAhAkAAAAAAAAAIEwAAAAAAAAAAGECAAAAAAAAAAgTAAAAAAAAAECYAAAAAAAAAABAmAAAAAAAAAAAwgQAAAAAAAAAECYAAAAAAAAAgDABAAAAAAAAAIQJAAAAAAAAACBMAAAAAAAAAABhAgAAAAAAAAAIEwAAAAAAAABAmAAAAAAAAAAAwgQAAAAAAAAAECYAAAAAAAAAABAmAAAAAAAAAIAwAQAAAAAAAACECQAAAAAAAAAgTAAAAAAAAAAAYQIAAAAAAAAACBMAAAAAAAAAQJgAAAAAAAAAAMIEAAAAAAAAABAmAAAAAAAAAIAwAQAAAAAAAACECQAAAAAAAAAAhAkAAAAAAAAAIEwAAAAAAAAAAGECAAAAAAAAAAgTAAAAAAAAAECYAAAAAAAAAADCBAAAAAAAAAAQJgAAAAAAAACAMAEAAAAAAAAAhAkAAAAAAAAAIEwAAAAAAAAAAGECACRP9/71dWKpQksAAAAAAECYAAAX0iiWMIsTmgIAAAAAwFl4YrEYWgGADBGyFBY/qsWyQyzBohXbO9AqAAAVNO9r5oh2acI/+Y1lPMb+bjKEJ/h3vq81Jv5DxcqKMM4IAADCBABIRpgC4scu46+dYqkR0oSOBAAgWQkKjCM/gYRfqbbBYbSIJWL8OZLw5/i9sFEIFl4mAQAgTAC4WJrCYzo1W4U0IU0PAJAYFQoYP6tsJEKqxGrsAqECAECYAHC4MHFHaNeYf26i0RS9RrQQAI6XorgI8eJP+FmO1kmJ3YkSxT+FSOEeCgCAMAHgEGkK04VvjDlFLySkaQtaCADHyFFVghzFlxK0jFKa4gJFo2l+iEgBACBMANhQmAJ0YZQpDgpCAOAMOapGq2hDiyFRjZAoAACECQD7SFP4Ih0qFIQAQG85io8zqjJ+Qo7sR9MYgUI6HwAAwgSAZsLEnaxdk/waCkIAoIcg+Q0xiktSJVrFcXQa8jSyQKAAABAmAPSQJn4wT/ZmGgUhADBfkDiCVJMgSSjIAIHCPRgAAGECwAJh4o7YriR+FQUhAFAvSYEESUIECYx3H25IEKgImgQAAGECwBxp4odvsuMfUBACAHmC5DfkKC5JqF4HUqHJEKgGRJ8AABAmANQKE3fUdqXwkU5DmhrQegCkLElVhiDxgigSkEVngjzh3gwAhAkAoECawpR6la2tNJqmh2gTAJNLUtCQJIxFAmawI0GgcI8GAMIEAJAgTAFKLcoUBwUhAIAkAcgTAADCBIArpClM6c/lshEFIQAkCZIE7CFPQpzq0RQAQJgAAKkLU4DSizLF2U2jk93iDSZwkyT5DUkKQpKAjcCYJwAgTACANKUpTOlHmeIPYRSEAE6XpPgcScEMvy8A6ECLIU9bUKocAAgTAGByYQpQZlGmOCgIAZwoSgH6KOUOJcCBE+FxqZxejfFOAECYAAAXkaYwyXlrjoIQwAmSVGpIUh0h5Q64h3jK3hbM8QQAhAkAcKEwBUhOlCkOCkIAO4pSlSFJtWgN4HKaDHGqR1MAAGECAHwkTWGSOzYDBSGAXUQpaIgSJpWV19lO/N43jvl7nA7j/5LFbyzjERjzd5ZfpFBmDked6gljnQCAMAEAlESZ4g9bFIQAOkoSd7zjooSO9eRwkYDIGMn5UIREZzqs+bn2J4hUqbFUGf+GIh7JscMQpzCaAgAIEwBulqawos4DCkIAnTrPIULa3Vg6DQGKjFka3VIIwCjwwQQShIqvF4xjOx+k6wEAYQLA1cLEHYVdilaPghDA6s5wiBBNiItR2I1SlMH1E5enqgSRcnsKJ0cdeaxqPa4fACBMALhNmsKKO5UoCAHM7OgGyb3jk5roo6hRGGKkTMQTRcqNQt5piNMWXF8AQJgAcIswcQdgl+LNoCAEMEOUQuSedKoWQ45GokcYZ2LptVeVIFABF8l6vCx5CAUiAIAwAeAGaeLOluo3pSgIASBK6cPRo3CCIKGDqvd1GTDkKUDuqOC3DeIEAIQJAKcLEz/Ud5m0ORSEABCl5AUpbAgSvi/2vl6rEgRqHcQJAABhAsCe0sQdM7Py8VEQAkCUzqclQZAaIEiOv47j8lRDzkzhgzgBAGECwJHCxA/vXSZvFgUhgJtFicf2cYoqR5Dw8sC913apIU5xgXJK+h6KQwAAYQLAkdIUJvOrPqEgBLhYZzJAzikPHh8kz98zRJHARNc8p+8FyTkFJCBOAECYAHCUMPEDepcFm0ZBCDBep3GLA0SpJUGQcH2DVL8HfhqNOgUdIE98n6/DBLgAQJgAcII0hS3spKIgBDqI3EEMiaXW5pLEclSPVDsAeRr3+xFEKXwAIEwA2FmYAmRNlCkOCkK4szPI4zjqjMWOYzji6XaIJAHIU3JwOnYdXioAAGECwK7SFCbrU6FQEMI9nT/u9IXIngUddtBoJAmSBKz6/sTHPNXY9Ds0klmA8U0AQJgAsJswBcjaKFMcFIRwfkfPjuOUOApab4gSrk2g03eqxhAnu6W0dhrShJdkAECYALCVNIU16ciiIITzOnWcfhcSy10269DxNbgFKUTAJt+xII2muNop6sQvI+owvgkACBMAdhGmAOkRZYqDghDO6MhxJ47fIttlnFKTsb8oAw7s+p0LGPJkp6jTNkOc8J0DAMIEgPbSFCa90qVQEMK+nTa7pd9xhw3RJOCk76Ddok5I0wMAwgSALYQpQHpFmeKgIIS9OmncQdtkg93lcsf1hAk2gfO/lzXG99IOLzBQTQ8ACBMA2ktTWNOHKgpC6N8pCxgCovvbbL6W6jGhJnDhd9RP9pn3bLP4joZw1gCECcIEgI7CxJ3eXZruHgpC6NkJs0tRBy4JvgUDzIFxr+PrtspYShN+Mv4x4s/pwfGXNRFj4QhIxI4pwzaaBw1FIQCECcIEgLYdCX446Zy6oXVBiDufei2Q8NfAmP9O7JRNRofRKUukMd5xu/+mqyzvRNgkqsTjk3hsRATfblff1/zG9zG+yLpmO43vJb/ICdtJoGw0zglzNwEIEwBAu44FdyZ2ab6bPP6kxorOiRAi7njFO1+Jb6YrLWyLCI158y2ESlnb2CSqBFHCvcyKSV5bDHnaIu5Ptrn2bDChNLdrENEmAGECAOjU0eCHkh0GCG8WnZKQQjkK0EdpO36y56SrjfFFRlRK86gSv+3nAiEo5ODee5ffkKSgBtfoyHg5cY+qhzhJY6v4btfhSgcQJgCADp0O7hTvssnucqckmOnbXCNyFBck/lnp0NPLEhWOL0KikhILzaNKECXcs/g7yx3pdRruHkdHQhAnqfewICrpAQgTAECHDgh3qO0SUUm5IIQQJBaAGpI/psGuAlU/URqfMa9Sg6ZthNQ7d9+ngoYo2eEFB4tTnZ0K12guTqikByBMAADLOyIsEbtsttvbjA5JxwSSVGVIUg05N4KUqXhyZ65ByFOD0WHiDskmTc81RMndoqRrR34ypETFLRAnjuKW6NiWuA8ACBMAwMpOSZjsN27nvIIQhiQFydyB3/a/SROd9ed5eyqKvLPm5XrQQQK63JMCRsfdCS88lI7BVCBNupYj7zTuCZhyAkCYAACWdU522XHf3++f9/MfnP7SxyFJmTPF56FLC8RS6B35s4WiFEKVLNfei/yGKK1z2KHZblJujcczjmQYYBwjgDABAKzoqHAHtdqO+946VNryr61fKG8fKsaJlMTyAq+QJy+ZGHVqMUSpHq3v2nsQd843OfgQOw1pstXLACFOOkosCkIACBMAwJLOSoBsGmViouQ99+/tv9fT2LN8Bs6mPKZne6iiaFSeFHYiUfkO9x6npN8lwwY7VdJLECfdzhPfO+rwkgVAmAAAZndcwmTTKFOct/oWHvn39lsW9EZzcUIlwil61xRLFycUdMA9hzvgd7nw0LcJaQracceFOPHYphDpM74JKXoAwgQAMLXzEiAbR5ni9Mdy2n546vbcY4Mzi3BWtRSnJqODE0aLuvZew0Va6sndVSztLE08vollt1aTXeJ7Sg1evgAIEwDArI4Md2KrnXAsu89edfJXndfPwlmVD6fqfaLEl+oYJ06h4YjSFrSgq+8xHKG4Fy1hb2kyxClA+qTpoYoegDABAEzrzPADcJdTjufU0LRj/+fUl+chRU8NC/O89MnSpKrq7aDRqFIErebaewtHJerJeRXwXC1NhjjplKaHiW4BhAkAYErHJkwOiTIxXBBie9taT3Pv0gKcXTVcM8VL1xT7xvuvFkOU8NbX3fcUTsHjawDl/50rTX7Sp5oev6AJYlwTgDABAFR2bgLkoChTnL09y9/7RcenFyHapAaOMt0w9bw0va00moKHTou77ydBoyNdgta4KFuFNNXZ/SCEOPHk4fUanG+UHgcQJgCA8k5OmBwUZYpzdrjg+I9bbytGQQh1XFbgbV1Z6N3wmVWVO9Earr+PhMjZcyvJxpYlx8eRJl0mvcW4JgBhAgAo7egEyIFRpjhPdl13/Omuj83FmVYGp+LV3H/TVXi76957CHf8a9ESKbNKSJMjvjdGUQi+DqxOxdyIYjMAwgQAUNXhCZMDo0xxUBDCnI6KkCZ0VNx13+DoAt87KtEaacFREb+QJkeksmoUbdompCmIywtAmAAAsjs+AXJwlIlBQQhTGBmALcQJY5kgS1ayWywcuYkYP0lISdjYbz9LivF7fN+rMn5aNQ5nt9i3gJOuDSPa1EDWjm3ia6AG4yoBhAkAILsDxB2KaqcfJwpCKAcpes6/V1QZsqRLcYdOo4POSzidiI04Ji5gwIsVqYWbxT6HHCZNOpSWxyS3AMIEAJDeCQqQw6NMcVAQwpQOLEeaMAAbsqQSjiLUyyyeYESggmR+AQvHjGcaI07cllZWTuR7UQAV9ACECQAgszPEHaFqtxwvCkIoB+OaIEsq2CaWkBCMiMJj9ZO5cw01ieOpcuJ1Y8zbxC9PrErfRAU9AGECAEjtJATIJVGmOCgIob5zK6QpiGaALNlBlMY57iCZFyFxXGreGHHiY7Oy9PwGIU31+DYDCBMAQEYHgTtF1W46ZhSEgDQBrWWJU+/qrEpZM46fO9pmREgWmimEFkhTgKwtCLFZSFMI32oAYQIAZNo54AfaLjceOwpCqJUm7vSigh5kKQVaDFFq0KAdzKoK6LiqeeNIU6khTVa9mEPZcQBhAsCGD46L5a1HrKjw48YoUxwUhFAKV60KQJogS0mwlUbT7zo0ag++X3N6nupKerfpIIkmPP9CZF2KHqQJQJgA0FSMAvTRnB9VKXZC4vOK1JtR7cfNUaY4KAihTpqEMFWhGSBLE8AD9Gvi8yZp2jYsMyqLQXBkrcopE9pO8mzkZ41VKXoj88ZhriYAYQLA+ocBz+sRlPxw5YdpvSFPERX7fedTrwW/MfOh+8pzPshz8/lDQQhlYEwTZGnCDqzuomBSep6jC0CMeU76yboqeiNRb0gTgDABYM0DgDuD/LArV7ypkbQVmTd7IUuccnLX4tyj9PUZD7v+XKIgBKTJZbJk1lidsWwUgrAF7fQhHGnzuyHKZDwzzUp3hDQBCBMAGtz0A8ZN38zOBj9Y62SUSxWyVJ/4wPrGzIf63B5lioOCEGqEX0hTHZrB1bI0MrGoHSdtNSES55ooU8IzNCh+PAhpAhAmAJx7o+cHm5VzTKSdjy1EadyOEqJM54OCEErYIKSpHs2ghQDwPcDMYi9Nhix12LjNOO36MYUy6ZooU8KzNEDWjGuCNAHleNEEwMWiVCqWeotlieFxUmEjHzxjWWIO9c+nloE5fTjLo0zx9czdOOtnRTcWv3wcrSGNB8U1GEAzWN7xrzdZlrbZXZYYo5rdVkWrZ2FwXQRWCAs/j6oMgTGTSuMZWoo7AlAFIkzAzcLUSNYMVp2IkRSXZKrpXUyW4iDKND4oCCH9mq26/6arImgKS2QpROa+8NkqRKPOQe3H91G+35Yr+m64LspkPFu5XVnk15m8aUSagDIQYQJulaV6zWSJ4beSk74lS0aWGESZxmdmVvu8zXPvP1eR/04PWkPKNdtgXJPA3M5+0GRZ2uAkWWIMmQkq/G64cpwfC4tYOOVxm8mbRqQJQJgAkChLIbKmok/G0pSsLMV5vPOTKPww7o0vWviHZTsL/mDa4+/le/vRIJl3UragGUyVJU57MnOAPctSvRPb0pg3SlXH3tWFUYwJZjdAmgCECQD7yVKArB+zlMwNP5SpLDGIMl2cVQUHFt09q/74vOxT3WiNjKjlOcDQDKbIkt+4D5gBp5Xd5lRZGiM2nQrWW2JEAt0sTXzt3KaofSFNAMIEgCLs8uC/y5C7tGUpDqJMFwcFIaSxRVynfjSDUlni+4BZVcjiZcMbnN6uRmqeqiip68vvC2niaygAaQIQJgBsgJGKV26jXU6Uu7RnU0eUKTluLn5h7t2ztx1Dil7alNjohYRtpZTMGXtp2zmWMpAmfj60qOi4C9ENQJpGihlxO5hZQQ/SBCBMAKQoS3zDtNubvnKWPGNS2ozKBiPKlBxcEGLT3J9QVcEhNEZ6VIvrFRPaKkB0urldzRh76TpZSiCkaL1BXMGWShPGWAIIEwBJwp2NErvt9KmB2FdldJIQZUqeLOqn9dN+SV8t202INqXX6URqnnRZ4k7mvZAltRhjtVREmWqNdEpI02jJb7OlqdaojAsAhAmASQjabYcHY9T2q7ahRbLWhyhTalTmv05/Ofthmpt9Go2RGkjNkytLLJ9mjSOqc6ssJQq/ovXW4Gr+SJrEwpUezSw7DmkCECYALoa4SfKDyk5jlygao57HTg+V9UflrRNRpjR6/t7TdNesh6k8F9KUIpyahw6iHMwq8rDBBdXwJkVhlAmpqheKU9ACacJ5ABAmACbAdh23nW1DsdbBmPT1IsqUOj7qpzum/xLpeamzBRPaZkb3/vVmFXmALJ2PiraoNKKFwFppuldIUxAtDyBMANhcmPZ0DR8/2h8rVLFuRJnSI8/TRbdN3YuGSA2O6uJtbvqyxPetu0zY1FbI0oWyT2pKYOP7oIc0PZg4bQcAECbgeoybom2KPbT0xY68ejY6V+U2EGVKDx7TBFLvICLKlJYs+cmccWDbhCyhEz8GY14mFePGkKaqjzQ1iP5BFVoeQJgAGCVglx3tidLxZ84MLVC9HUSZ0oNT864sPIqGSA1+WYGSvml05kj9i54mIQZBNPWEqLhuy4UMo5OuhzTx94vnaPKj5QGECQCbCFOMqHtn69BcmUUeLgaiTOlxaR6EKVmm5mbT8tLCQ5+ZX/bJts6uUMJSI5aAWBB5GgfRoQ6R+nFLTWSjl0lWYFQLVFH6GpKqlzQ1YGJbkAxZaALgcKrtsJMvdw0PqijyMBHxKFN5zgcQpxTIxSumCSn2xGhJVpQWTsmnFZfMGc7LzfGJf15s/Pem8T4jpImrkYW501JWUtzg9jY05lvapHgzPDYnaKSdgYvDUaYHJa+T0/KQBjmJNAmJ4T+aMVEzv5xowAsEMBmeWCyGVgCOxMhP1n6k/smB2JFHT6tPxRvL4tyj9PUZD+NCSYHXe6+lf2/7OBrCIM/npRXeQbp6bhmVz54hoyPPHZeQkKeIC2WJ33JzVEP1FAhrhCyFcfUmfU7OKFj1QnEOImjhSZ/h9SZJE7PNiG4BMC54XwqcjF/3HeT5lna2mS9LDMYypU6kfwYagUajSZ8tzaa/u3oxfeHKS2XIElNidI7eb+vsqheL32XNWm+CLG2ELCWPEYXboWDVKP6QBCan59Wi3DiAMAG3ov3g2qfPDJNZ45bGA2OZUmNvz3xXHz9HlD49xUffXL2Mrluu1Gfi4rTFDWOdjBLi6xRvhivioQBHeiILYXKHNKHcOIAwAVfi13nnOBXvUG+0wMp9QJQphU5tdAb1RnNde/xLfFH6i5Xz6YYVi8zc7F1dZ7uP/KD+4b9dvbbWkeJkUglxLl6AcTNpICST00Rlz8lUbaT7Af2kqQGV88B4oOgDgDBZQJTo3FPtwwt02BeOMmEs0+QcGRw9Xfnt/eQbGKaSjn7KHxoND+a190eHOwZOxoZjA/z3mJeyzs4pHBrO82Wfm5k/d6Aom3ixIxxVunVaDq1aZM3lWjylqOjLt938nc6z574jpInTo7gDG97z+LaIQy4tliWVJcS5s1+DIg+ZdaJJ/liaAKmZ68mx0mRSIYh45byA2Ca+MwDCBICVvNEd7T47HCvUYV9QMW98ujvz6YOWWdTVOZ1OtEyjro4cqug6MNGve71EcxL/Ibdz4LxfiHk9PYOF2ae75hVS1yVF5b3T8mg4R+8g/6xsL31l4QyaMbXY8n354z/8f2ixf966f75v+0jqmpCnJkM2GuwqT93713PUR3UlzyAKDGgpTDUQppTh7wun2qsuu19p3FuQOgk+BFXygGNp3tfMb4dKdNuvgSid+fEHg1N12idUzCNqP1lMx1rK6YPDM6m1JZeG+tVvc7Ag62SHfwp1LCqZ1TtNr3S/edEBClYtoYJ8vfbrxVebSUgTnevpTfzn3QnyZIu3wkYqXqPie9RWIUtIxcv8XKmoltcizo0frZvyc53PRdgEaWI2VqyswLg/AGECjr+xanlx/7J16NzRfj2iS4l8Y+ZDrosysSS93Xw5HTtYSr2d1u5LNNvb1jW/qPP0ymmLrJany/M89JXKJdqetzfeepfu/vbWif6b0/bqhThp/fZedMK506cyutQkOuRVBGSdL76eZBfmQHnx9KXJjBL8zBohTWG0OoAwAQiTiZwZih37j5ND83RsL7dEmTjVrnnPKi0kaSJ6s4ap9bJp1LVypulpe1zcYcPVy7U/j888+/JIpOki8NmtN+SpUbPON0d97lW4CT72KnTGtT9nG8Q5qkfrpvV855cBLDKqs0hGvktCmvBdgjBBmACEySx2tA7RsX59v3NOjjK90+yng83LqO2wvYZunpzppTOf9JtSNILHLP3RZfO1S8ObiIYnwvQv//ZoMr/K4504tcbylD0jvSuiuKN3m1HdDcg7b37x433Jq+VS70G0rvbS1CSECdFal4Oy4gCYxJH+2CGdZYlx2rxMA33Z9OaeS+nhH6ylF3eusJ0sjUjMqShd+ov36JLHDlDRiR5l2+FqeF/xT7eNLDE1twTo2qsrkvlVHu/wIIvK6rW19WKxsvNTT+rHLUGWJGNE61okrzaAlk0fITEcOTZjjF6lkDOMZYIwAQDMIHxmeLHu++ikeZlYlB75wY30+jOLtE29S4XSs0SLnjqiTJxun1VIM6aV2K5d/uLr62nWjGnJ/jofIFc72yukqVEsQTP31YQJajmSFsLdVhmyRbTciFyB9KWJX0BsNGFTdwlpQtU8CBMAQCUcXTo7bI/0V7tHmSIHF45ElFiUzKh0Z5U4zX76EOV0D0pZ59V5Hrp0wWxbtkdhQb6Qpq+m89GRqJOQpg6xhMSitONqpOKpfksdxHxLSgkrWGcAzZqxNPH3yoyJbesxqS2ECQBHwZPOafWUtUF0KY5do0xczOHX22+iZx+5zBERpcmY+cEQLX7sHZq+53hG6+FxSzcvm2/rtrjisiVUc8uadD/OUadNYnlfcbpeiNRW9dosZKmRgN2ECWNj5EhTkEanF1DJyKS2aG0IEwBAAVwZzy7RpTh2izK9secK+uWPb7DlGKVMyI75aO7bZ2nhz/enlabH45bWzS2mgnz7D11b/8VbRqJNGRJP1wuLJSBN5vev507xXQoPf7eQpRDutmoxondNklcbQMtKo0bB+RkLxjNBmAAAKniuY7jUbvtslygTF3V46pFP095nFtBQv3srfk7p942k6c18NrUx6Z+e4qPy2TMc0QYsS7etXSNrdTw/0i4hTRFJ45zqFR46x1ODBMwiLLsDjiaVQ8XKig7ju6A6x+Au3bJYAIQJAFszEKUzOk5SmwxPPH3l4NuvztF2/9pOTh3Y8ZOb6MTBXFxoBrMjfbTwP9+i/PbJB2/x5LTXLfc76vj/4Au3pFIAIhk4he7BTMTJmL9HZac4hPmWbC1MfI2g8y1PmhpNeoHQYEygCyBMAIBMebFrOGrH/c7qGqDh5/q8Lz2xWMso09uvL259cvt1Ob2dmEduLFP6vOT/9XtU8nb7hL/D45a+UrnEkcd/Y/XHVaw2Lk7xAhFJdZSMQg8hhYfLqXhID7K5MBHGMcmWJh5npLpyHo9nqkdrQ5gAABkiTOncu73RMjvu++ydkVZPNFbYczYnT7coU/PzSz/Y85vl092cgjcZ2TEvle85TXN/G7ng/3jc0h0r5ju28XhuJgljmS7WSeICEZEkxWkLqZtzCal4FmCMY5I9HxOESb40mVE5b13zvuY6tDaECQA7Y3lp3WP9sRP9NowvFb7b2ZPT2js9/nedoky7f3Fle+PupXNweSfH9GP9VL7jIPkGoh/K0saK8mP5ebkepx4zy9J111So3syk4mSkWdUq3Aek4llHGMJkC1hmVBeBCKHUOIQJANti5DFbyoud9ikl/uENoX+YZjxz5LwBMLpEmV749RWtLW/PnoarO8WefWeMlv4q0s5zNq1fNvetopyseU4/ZkVpeamKU0jhdpuQimcpsp8vKPygph9gRhEIlBqHMAFgeyybjWcwRm2tg/bLeip99VSnd2B46th/tzrK9Par5UfebVowHZd0euScG5xWO2PauwuL8y9zw/HyvEwK0/ImE6e67v3ruZNWrXB7QVzVjhImFH5QJ01mFIHgUuMhtDaECQA81FIk0he13dSpHF0q2Xt63ImMrIwyRfbPOb3nqZULcDmnz9Jq/xF/xewlbjpmE9LyJhKne7/8976f/OYVZVmPmKDWYkT7hxWs1o+WVSZNHAHaqngzm4Q0IbUSwgSALQlbteG9Z6OL7NZYM54+cpILPUz0/1ZEmdpPlHQ/t6MqH5dy+kxdUNJ95Zcud51wVqxYatm2T3WQ956fe+kr3/XRf70pVZy42ABS8fRA9tgYCJNaaTJjPFM9WhrCBACEKUnsmI7HZcQL3+ucdbHfsSLK9PRD15yJxTxFuJTTl6Ub7/6kOztIFgpTnJNniL5V76WN93mp8ZAUcQoaVdqA9ciO8gXQpMqpIbWp+kjNgzABYMMO08oKS4TJjul4Zc8eP5nM75kZZXrpN5cf6O/JQSpemmTnZ1Pgzz7e6vG6UzhnTp9m9jimCWkSsvTnQpr+7kEvnWhPezU7FKWCgTRv9ZLX50eTKu8T8DkLKt4MUvMgTADYkh1mb9Bu6XjJRJfimBVl4lS8g69fshyXb/qy9NnQmiM5Bdmu7oQt9s/Xan+e3+eh3/8HH/1gh5e6e1P6KOZc0g/Z8lqOJjVFmswYz4S0WQgTALbD1HKf0Rj12C0dr2Tv6ZQmYTQjyhR+9MqTuHTT5+a//tSh3CJE5xaVz9dyvx59zjMyvmnbU0k/gkNIxdOOiOwVolKeadKkejxTNSa0hTABYLcbYz2ZWF5cyNIJW90A+oep+M22mal8RnWU6eDrl7R1d+YvxtWb5pP6Tz92qLCsAO0nKCrUt17IuT4SwjQqTpOMb8KcSzpeW2omDS5Fy5pGUHHfABPaQpgAsB2mdTYO9ESzbfXQP9jR5hmOpdyrfO135d2q9umVZy4bwiWbvizNvmwGZMlGcGEIHt/EhSEmGN+EN9X6slvy+jD2xSSM+ZlCCjdRQkjNgzABYENhMiXKFOmL2SoNatoLH2Sl87nO1oKiY4emSt+f/XsWHhge8s3CJQtZkkHNLYHviR+babQct9ZwYQge38Rpegnjm1DoQW8iktfnR5OaKk1bFEhvIuua9zXXoKUhTADY5abYQSa86eHxS2eH7TN+Kf9oN6fklaT7+Rd2LpE+pqLp2aXTccVClmRR9uJrX95TkBMQS+TR/Oy9f5nja/lKlo+u8nlpjsej5T7H0/R+/bKHtQnRJQgTUIvqUuNbhDQh1RLCBIBtUB5lah+KHbFTg5S8fjqj/T19bEqpzCjT8fennxwcyCrDpQpZkt1EvCzweFZ9KctXvjHHR/flZtGO/GwSIkX352XTppwsiouUDvD4pn9+2Jt/w1/66levrUWalr7InosJ59pkjBeqQYWb4OqHePEBYQIAN8U4H/TH8uzUJvlHzmYczZEZZWp+bukJXKmQJakMD0/6nbzS66HPZnkpLlIsUT8TEvXn4u+3in+fYm0gimVvr5CmLWLBW2r9kB1lL0GTWtI/4Gq6Kqcg2YQCEBAmAHBTNHivL2qbeTQK3+3sSafYw1hkRplaP5i6DFcpZEkmnr7+tMbDLRUS9eUsH30rJ4t+m/+RQFkYgbpLLI1CmjAeQiNUjC/r3r8eUSZrCJLaLJR6NDGECQDcFGmkpLhtGqH4zbYPZK1LRpTpvTfnH44OUz4uz8nhSWlv/fYNkKUkyDp8TMp64gLFEajfCYHiFL5q8+WJX8g8JqSpQSx+nF1tkP08QSTRAkzIQqlGAQgIEwB2uykGZK9XuNLp/qh92iHvaLe0iZRkRJneP7CwAFdncrL02dCaI5hnKckHXNsZ6ess8tBICt8/GuOgOPJkcgGJdTQabcK4CD2QPY4JMmxd/0B1ah4KQECYALDVTZEfcBtkrrNnONZjl+MvPNRJnmhMqqBkGmVqO1GC6niTMHVBSfet374hkluUswCtMTmewaF+WRGmiWBR4sgTixMXj+AxTybBY13uFdLUiKIQliN7HBOEyVqCpC41DwUgIEwA2E6a6mVK0/GBWIddjr3wnY73ZK8zkyhTd2c+9XVGcVFOIks33v1JyinIRmcqSbLeea/PzO1x8Qge88TydEe2z6xiEZU0WhQihKIQliE7woTzaG3fgJ/lIYWbqEMBCAgTAK6VpnPDVGSX4y6InJ2qYr3pRplOnlyEi/EiLK32H7nprz5V5PF6itAayZP70uuWVBzjqBML0468HDPFaRONpukFcOZtDyKG1vcNVE5oW6JYyACECQB9pel4f3S2HY43q2uAvAPDSoQp3ShT60lk403Eii8t67nyS5cjBS8Ncva+aen2eaxTojiZAKf77EIJctMJowkcSVDhumub9zUH0MQQJgDsKE2rxNKS7jr6olRoh2PNP9Ldq3L96USZOk/m4CIcAxd3uOKPVtAV1ctQDCOd9tt/sNPT06vFvnwoTuKcmlRZL16CHB0ye4IIkx79goj4sVnhJkJoZQgTAHa8OTYaD6q0KuTYpaR44aHOVpXrTyfK1N+XhwswsYM9r5BW/1kVrViFVMV0sSod72Jwqh5X1uPiECZU1UO0yTxkj2HC5LX69AtYaloUrR5lxiFMANj25tghFr6B3abwJmltR/J0r/JwTvjR5d2p/H5vZwwXn8HM1TNoTd21NP+SWWiMDLA6He9icHEIngj3K1mmpOkh2qSYohXbO9AKjiaocN1b0LwQJgDsLE48FwNHmzgcP2l50YEYHbLLsfnODSrviXe2FhQ927CsP9nfR4W80RS85X+whNbUfowKChBxy0iW9jR265KON2En20O0MceHaJNzkFqGunv/eqTl6dMfCJO6uZnKm/c1B9HKECYA7HyT7DDC8X5DnCaMOPUOx7LscEz5R7tN29abL8zPbdx9SR+upCQ6z0YKXtV1l6IxJJAXfsE21QTj0SaT5m9CtEkdKC3ubOpI3dxMITQvhAkAx4iTWFicOFVvm8Ibp1JyT/ScMXN7L/x6Sd6Of1nVevYMIiYTMad6Fn32/12DFDxZD7TOs33ZBw7Zap852sTzN23KMeW9SzzahE4aAMn3AyKkLn2Oo0z4PtoATyyG8QMApIq4wXHKBI93qjrcF5u9s23oY7rv84ynDx+b8taZeVZse+b8s+/NKu/0la/smkkeX/7p49Po9PESOvFePsUGfeTLcte7m5xpOVSx/jJavBwVw6XKxwMPUe7zr9h2/9+JxujO/kE6a85juUkswT2Pb2vElZMZ3fvXcxr3Oomr3Fi0YjvGt+j1zOeoX6Px0kE2/BLWb0yaCzQlC00AQOoYVfVGOho/fOq1kPihvTDlfdAzZNW2Tx2dskgs9MbzY/9nmAqm+Fx17XBU6epbr8BYJcnEenqp/9mXKddnX/le6vWMzNvE0nQwqtyaKsWyd/Xa2o1CmtA5z4xGycKElDz9nvkdRiToQQWr58qInPYXQkvrC1LyAHAJvp6hYi1vQj533IY4qnT1n1XS9V+6BrKkgMEnd1P7cJRah4bJzmVEOEXv/txsusq878W9QprCKAgBwKTSVC9+7Fa0+jojigUgTAAAS7/sA8NT0QrWsOD35tHNf309UvAUwdGlgd+ER/7cHY3RicFhGrJxujlL0325WWYVg2CqxRIR0oR5YQC4OCFF641HmQCECQBg2Re9fxiNYAFTlhTRZzZ/kq773CpElRTC0aVYQinxASFLx4U0Ddh8jC4XgzBRmrjD9hjKj6eF7HFgATSpnhhlxrcpWj2iTBAmAICV5J7Wd16a4SHnzcPE6XdX/NEKWrsxQGXT8fxTSbS1nfp/8cSF/y4WlqbuqL2vL5OlieHy45yih7mAkgeD9d1FSNF6EWWCMAEAgPPhCWjn3jxnJP1uxapFaBATGPjFby76/61CyDuGIU0pEi8Igc4bAGMwyowjygRhAgCkiPZleZGSZw7XfL2y71OfvwrpdyYx/Pa7NPjcy5P+XodRDMLu0rTM6zF7s1wQogEpegBcKDakZk5GRJkgTAA4Fu3TMfKOdrfoum+YCw6kS9/2XyT9u/FiEHaONXH1PAukictlNyJF76JEJK8Pgqo5xpxJqsrxQ5ggTABAmMD5ZBdhOjiQOgOP/YaiLcdSE6yYvaWJq+f9Y24WTTHdmUYm6+QUvRCuvHHOy4rtsoWpEq1qC1iYlESZmvc1B9G8euHB210AMufOp17T+otUtvtYS0lTa7mO+1Y0PY9oyBnXQeCbH++YdQmqPKgmevgYnfube9L+fI7HQ7OzfbZ9Y/h6NEZ39g1atXmeh6Zmz+Pb8KIoge7966U+A3549w1rJvivxrt3fg1trwnGZLabFKy6pWJlhR8trA94tQuAHPgtUwmaIY3ObywmOq4eNARImt5//VlGnx8wIk12laYrvR768xwffX/AknFZPGcTp+ixNDW65Zq759YHAgl/9RvLh3//k3ukb3LXRfblYs+hseeE/54oWOH4H4R4hXE3yRiOMtUpeP6Xc5TJmCwXQJgAcAyNRkcCpMhQ7zDl5DjjVuTz+gZxRtXS/7PHUk7Fm0iajg4MjUgTR5zsxpezfPTacIx2W1MBMJ6it1FI0xa7XksJEpQoQIExcmgnSsbZ57F/3zSOeCWKVlywIvFFiFUEd57x4bFMQmy2kJooE4sYhAnCBACECYiOa88QZYtOq8dj/yiT1+uJ4oyqg6viDfwmLG19fLLikSY7StOmnCxa1zdAZ61LCOYqeiwYQd1S9BJkiItVlCb89BvCB8YXrepx2pJ/NBki1WiIVCNk6kNURZkqhYwFjMlyAYQJAPuztKTg6DudPWiIdDuuwzHyZdlfmAZ7hk+LH7NwRhVcI63t1Hvvj+Wvl0bnarJjeh4XgdiSm9333/sGraxjH6+iZ2qKnujE+w35GStElry4GujLopy8ISd/BSvHEypDpnYnipTbUv1MiDJBmDQARR8AyJC2zq6g+PHgPzVG6Ey/nhlZOhd9YArL8sjjgKmirrz98palAT/eXksm1tNLPf/wf6Sk4k2EnQtBPDw0/Ow/Dgxfb/FucFpXnZCmeolSFBehuAwFjJ/aVZGrufN1mrtIXpDtp//fdXT2jK3nc2syJIqXsJAoR493MyabZWFUMZZ5oTFZLrAQRJgAyEyW+K3SXfznxSUFva+e6sxHq6RONBojHwo/gAnw/XuDUlli7FwI4vYsX+We4dgf7x6O3kPWFZ/h7T7IKXpCmoIpipGfRqNFAfpoPJGrU5yLp/XaXZgqjaXWOMfxcVJhQ6DCTjpfJkSZMDeTxSDCBEB6osRvkxoSH+oHOs4d+bcDxxfouL9lzx0/WbL3tNapYkWleba/LuZXzen5xB1XFeAbIo/Ch3ZQ3tPPUnc0Su1DUeVzKNk40rRjdc8Ai0o9jabJWQlHFwJjxzWNiRhVOUmMZEeYdvzLKjp2aKrTv947EgTK9hEohVEmlk2/MVkusAhEmABIXZaqDFk6L/VqSUnBdF33uWdh8SwhTFq369DgMGWJjqqdGTg3AFmSSO4Lr4zI0ohQe72Uk+2hU0PDNKTwPR9HmtrFNqZn2e5aXLenIKeKHvlRzeq1tfw2OkTWRZsqPUSH/8dnv7NpiWce70OAUGwBjHPNxuVeyHSLIU8NQp4a7HgwCqNM/B2qIVTMsxQvmgCAlGQpaNzUL3jw+zye/DkFuWikNMnK99n+GE6904YTKUuWXnp9oOgnD533bxz9mZudpbyiXXc0Rq1DthxUN9KhMkp984udJqt2RDjtlMbYu9+PxE5w57EasgQmga8PTt97TMhTh1jqxVJj1++gAkK4RCBMANhFlrgT8iBd5K3tjQvKjqCl0qO3c8ARxzHQO4i0CRmy9KOf5Uz00OKUuQKvemniNEDbdTq/eEfIkKaIWFiaNlu5Q6/GDtArsbdxUYNUKLGrPBnFGbap+G5ziXFcGhAmAHQWpVKxcH71XZP9rq5peb3zi7Rv5+HB6Ehant05e6L7LL41amQp8cE1M8tHRYqlicuN90VtN863TkhTafwvQppYoNbQ6DgIS2iJnaSno6/RIA3hAgeZyFNELCGjSIjOhBStN4jLAcIEgK6yFKDRQZxJlbHltLyrZ5b0ouXSwwlpeceaTxbhTKYpSy+8QpPJUiI8zqjYp/YxNjpmylbSVEJjKmoJaQrT6BiiHVbtVCd10+PRl6lD/AQgTThtj1M83xfS1KBr1MmIMu1WsOra5n3NflwGECYAdJMl7nTsohQHTv/egula5pYNlua26N7m3a19ZPfKnR/sPzUV357UyXvmORo7ZikZpglhmp6l7lEWHZEm9dX5JHNelMmQpg6xcAdzo2X3IBqiZ6KvUSR2Ahc8yBQuFhGPOgWNCow6EVK03hqceggTALqIEqfgcZWee9P5fH6Wt2RxccE53Y4rmuezx/fd5neljqNdnFrYj29S8hQ98BAV/kf6hbG4gp5KaYpXzrMRF0SZGNGpDHzRW10a8Fa9VkDWlfHncU1NsXdx4QMZcNSJxxbH0/W0EKeKlRVh8UPFS0rMx2QRmIcJgPNliQdJ11OGM8l3DQyd/N7e97Wa96hs97GWkqZW7StV5RRkUU6OvWc8uP5PVh+Zs3LmAnyjJocjS5nIUiJcpIHHHamCpYzlzCZ0/nTgivUfRIuuptGy3ufNd8TRnleEuByPtVq2gzOolK7zrqRsB8xwgnmY9LnuxcIFmrbcvfNrlhbgad7XHDRkTjZrDCEDJoIIEwAfyRLf3MKZyhJTnJM1q3ru1DM6HV/f/CJblPUd6BmioaGorUvmHXr+MGQpmQdQ59k+WbLEqI408cS5A/Z5yViyyHvmVzQ65uOCyWFZUq7zrKSrPcst28HT1EHhaBPGNQGp171xzXPEyepoTAOpKbYSxGmGMAFghShxCl49TVIyPFU+Pb8sV6csuMHiHNuck/5zg7YunHGs6QQNDgwN4tt1cfKf+J30vDCV0sSxK5URLNlc4Zt8smq/ZzZ9xnsVWZWix8UgdkOagBpxutcY42TJuB+eyJbUzMvExR9KcYohTACYKUucghem0bKlUvF5PAVfXT5Xm9HNAzPybXNeYrFYyeDAsK2l6fgbJ/vwDbs4OXvfVLJeliZV1fM4wtQxbA9pKvb00+VJSFMpFdGNQprmeqyZFQHFIIBCOLOCi0OELSpHvkXRelH8AcIEgGmyFCRJKXgT4Z+SP3vNvGnHdTnmwam5x+xyfgZ6h2ydlvf2U4em4Fs2MZ7BoX5va7uy9XP1PFXzNLEw2WV+pit8p5L6vXiKXqVnsWX7imIQQCGcltrIhSHM3KjCEuMo/gBhAkC5KClJwZuIz8wvm7tyWlGPDsfe4y+2zehqjjIJaeq063XG1fKOHTo1gG/cBA+fMx3Kwwk8T1OBImlqHR62RanxBd4umulNvmjnUs/8kRQ9qwoxvBM7Rq/E3nb9JLfZucNNRkd7vAWkx8j4JiFNLE5VJm63XsE6KzEnk7mgSh5wmyxJqYKXKtEYdd+37zAdP9dv6aSmhYc6adavI3Y6ZecKinMLvYo6vaqZubSM1tRdiy/eeA+fwaH+aXd+M1f5d08sJwaHlRRrKPV5RxbdeW14Dv12MLW+FQvLC9F9I4UZrOnZFlHAW6lbBb1EWYkYywh/+DfPf7mopF9mBY01RSu2h1P5gFFSe6wIBBL+zP9XmvDnEnIv/DIudPfOr20xY2NCbjoUtPfmipUVITxNIEwAyJalII3mE1vykGBpqn/7mOdQV0+hVW3g7R8m/7+8aavz5svynsgvyplt1+vuk3ddQ/OWzcIXcBymfeNvydOjfqgaS9PRgSElEaG52T7K8egt9P3ko619q9P6LKfIcdTHCrgQBZcd5zFWCuFITscYAWo0/o1Ehzopaenev55/r9pKYUqHMZIVGPOzmpzPDrEEVZcgF8LEfY+7JK+2RQiTnwCECQBJolRqiFKtDvuz4/1TbXtOdZZZtf0FP337WPaZ/nl2Ood5hdk9Wdm+Ajtef6Xzi+nmv74eX8RxKNr2n725z75sSjUSjjAdH5Q/+WyekKXZQpp057HB5fTO8LS0PsvFGJpihyxJk4uPrZrhSasoWEuCCEUMCRqRIdFBbpS5n0KYeH0yMxdMEaYUhCoenWKZ4k56OTkHvk5qZF8TY4SJ2+x9BateJaSpkQCECYAMZYlv8g263dwPdJw78p/vnljQZ3K1LS5z/sm24SPv/Vuz3eYJ6iksyS3weOyZmnf5F5bTyhuW4gs59gHU09s57Rt/a1rEV9XEtnaY0PbN4Rn0+OCStD/PZb9fiR4YKQNuBTxfFJdAH4d4hCicIEQR0fmNmLl/Qphkd6amCmHq0PV6GiNS8aWS7Aun6NWJ66ZeoTQ1KmijrUKYUAACwgRARrLEN5F7dd2/4Vis55eR055XT3Uqf8POovSZ+WUtH5tVMt3r8RT+vO4J6j59zlbn0+vzHCuYkjvPjtdidn423fDX11FpGQrnjcXMKBPTOjQsxEnuc49VaX5OlvZVlLb2X0P9sfTHBHGE6ZXYAToea7Vk/+d7Zuz+uGdFg1VSZKYwCVmy3duhBIkKGIsdx0ltVDWuSQhTkEaLTckEaXkQJgDSFiW+afND1Rb51219gy1PHmmdsa+9W3rK2ZyCXLr5kumHFhfnz2ZRiv/727997+zzD7xuu957dm7Wydz8LFsOCEJq3gQPIZOjTKqKQNihAEQmaXmJ7I9FxNJi1WFs2/P4tqBubQthmlCi4gJVQ/YZE7VNSJP0a8yYbPaMgv1FWh6ECYCUZSlgyJLtqv/0D0fbDnSc63z2+JlFH/T0p72excUF566eWXxyeWlhSa7PO+5YqYGewTM/vWPHVDueYzuPZ1rwsbl03R9eiS/q2M6hyVEmVeOZ5mf7KEvjtNFM0/ISsXJcExkD9YU4aZOyBmFKWqBqEgRK53FQqqSpnuSPp0ZaHoQJgJRkSUUVGkvgdL1TvQNHIl29eUfO9cW6Bob8Hf1DdKZ/cFQafF6aU5hLXvKcW1icf2Jmfs7A3MLcnKm52UnPOvlfP36t98Cu9/Nt2DzdBVNyyOvzFtnx3F791Qpa/PFL8IVNfBCZHGViuoaj1C55DCFPlMtzP+lKJtXyxoPHNXHp8R7qs+JweOxSQBdpgjClJU8cfQpqLE/SpUkIEx/rY5L3E2l5ECYAkhIlS+ZWsjv95wY6t/+PX9p1Hg5bF4GoWr+Sll+7EBdhYgfR5CgTw6l5fZKfgbpHmR4aWEmHo8XS1scRpnC0yapiECxNHGmyPB0JwiRNnnjR6bm0WUhTSLI0qZiTCWl5ivGiCYDNZYnD0GHIUurkFuaUXPHZZX023f2Cnq6BI3Z94dO4fR8dePF9XIQJ9N5ywymzt8nV7WQ/BDtMrnyZKkt97bJWxVXFdmdT1uYbvVfd5iPvf1hwOHzfD69eW1uFb5C94ZLeYuEqdTzO5zYaTbvUgU1C5oKS19mgYD+DuIrUgggTsKso8U21Xizr0BrpEx2K9j78l0/m261i3oc3MI/nSEFxzgK7Rpoqv3gZXbpmMS5Eg5LN36esw+ZOksqCI1tydI4ynYoVUn1/RTof5WhOmEYr1DWON2eNEBfutD1owWGxvAWsijR1718fED92SVxlS9GK7X633w+EqHAb1JEeUadVsuZpQloehAkAs2SJH062LOygZXtGOjoa/uaZUrvuv92laeHHF1DFFy+lvPxc11+LOc1vHZmy9cemzxF2XHLVPN3HMiVZXny3IUhhQ5CSGiskpMnK+/MGIU31DhCm3UKYAng6fShOpYY41Vn43Gcp9yf7PUhCmiIkf9wW0vIUkoUmADYSJb5phsghhR10ocxfWsqpeW/8+mCeHfc/Fost6OnqP5Q/JXem1+uxXan09186QmeOdtJVX72Cps+f6uprcaDisgWxgnwuAmHqdqf5vHRiSF7VPJ7nqVQImK5Rpku8XWPLi3cmyFE4kzfpQljCCdJk9kD+B8W2yQppAuowJCUkxGmLheJUYlzTskS2QUFfhvcNwqQIRJiAXWQJhR0U88y9L1DLq8dtue9zLptBN//Vp/pe//mbsfdeOJxv13OwbM1CuuyzS1wdbSp49Ndn8h//nenmKHtC22IhYdM0nZfp9eHZ/c8MLvyNDEGaCCEupWTd+NKNQpq2mLUxRJjMxeKIk5SJbZv3NXOfZq/kfWuqWFmB8XwQJuBiWQqJH5vQEmrh8Uy//Nbv8ttaOmy13xwdW/37FR9Gxw789r2Tjb/YP8uu5yE7P5uWrCmnZTcsdKU4eTu6Tk79i82mn78h8Sw8KnFuJlal+TlZulZWaqJHfmRKx0qIUz3Jn3cmGUyb4FYIk+wxKRCm5MTJL36wvJg9lnmhkKaIBGlSUS1vqpCmDlwdCp5NaAKgsSj5xdIIWTLpZpDlzf/8t2/oLSu3x3CmnIJsEvvbnShLzPJPL5p1y7cCx1g87Mhg7yB1R3tdG2WKlhbPGrpknunb5fS5UokRIS4j0RPVtmKeaVEfQ1o2W3CMtYasmYFs+USHNwlYWsTCsspV9VpM3LSs60pFtbwaXBkQJuAuWeJQeyMhBc8SaeIUN51Zer2ffv+Ht/bPWDxt3Mlri2cVzav53k0986vm9NjqBOR56Oo/q6TrPrfK1ddh3w2faLViu5xGJ/OhqHWJ8S/eETBRmkLixwaHS5NMMA4lNXFqMKTVrFLk1ZJKjUOYIEwApC1KHFUKiz/eS6iCZ5k0rf3batJxjiaOftV89zMd1//x1eTL9l00BOP1eQo+ccdVBTd+81PvFZYVaN/uc6pn0ee+82lavHyB66/BgasrLSkx5zWkSRZDMZJafU8ypo51MAox8JuATgukqdEYUwWcK00dRrRpg0nXWCjTFVSsrGhQsK8BXA0QJuB8WeKbHb9Zq0ZrWA+nuglxauXUN6spmlFIa77xse6af/jMSFW/VD477ZKSRZ8Nrem+8vbLW3RM05uypIiu+kYFXf+la6igIA8XniCWnzfVirQ8IvlRpi59o0ymDw435kniDl2LyZuOT3ALaXK+ONUb15hqaSqXFGUKS96vEqOgBIAwAQeKUqlY+E0LD5pFVEkj5lw2Y/rv//BWqvjccktF6b9tuYUWfXxBUbrr8Xg9RUsD/vLb7rnpnC7iVLKkeIhFae3GAC259BJcbGOwKi1PdpSpJ4oI0zjSxNtucpA0BSSvD2OYMpMmvsb8JlxjIQnrQFqeTUCVPGC1LPEXux6iZIMO7Nl+2vPvb9A7z0aUb4vHKF1+y9LWaZeUTFex/lg01n3yQOvJ5h1vzzpzpLPIzHYsv2ZepKLmsv6C0rzluKouIi5dZ49P3Riaa8W2OSZ0eGBI2vqmZ3mpyKvh+8lHfmTZRFGGuPC93+wKZ9yJDghxkyYl3fvXh0luZsSaohXbw7gLZIZRfjxMasdCbzCiWmnRvK+Z9/GM5H3aXbGyIoArAMIEnCFKVj0sQabi1N1P+598h9557gh1nz4nZZ2c9jdnxQxa8ony9gWr5hT4sr2m5ab1dw8cee+Fw52H/uvw5efa1NSImH3ZjJNLrvd/MPfymUs42oWrKDmmfvO75G1tt2TbMudlKvB6aGaWT8cmXiOkydKOuUVlx6VKE4TJ1dLUJIQpo2itkCYVBa5QXhzCBBwgS4gqOYSzp7sp8soxOvL6CfrgrdNJf45T7crKS2h+xeyzs5ZP75k6v1iLeZOGB4dPnjnSeeLo3hN5p95pm5du9IkFaeaystPzrphFU2YXlXs8nim4WlLH95NHqPSFFy3ZNhdrOC5xXqZL9JyTaYMQpnqrd0JIU4jMnz6i05CmjCvSCWGKiB/lECatpalR8jlKZFUmkz8LYVJx/d9mFJUAECZgQ1FCVMnhdLef44gNnWvrpZ6O3g//vWT2FMqdkkO5hTm9hVML8u10TCxRg71DrX1n+7POnjx3YrzfyS/NLZ0ys4iycn2zfdm+WbgS5ND3+js07wf3W7Z9FiZZVe44wsSRJs3YLIQppMOOCGkKih8P2lGahDDJ7kgtFMIUwR1AqjRxFIglVMWL2m1CmIIZCBPv217J+7RVCFMdzjyECdhPlhBVAgCkJqs9AzTzG39t3QuAaJRah+RUuSsSsjRdv7S8HUKYtBkgbkjTFpOfExlLk2xhErLkwbdfiTSpkvJOIUwZFRMR0tQh+bpvEsKEankSQZU8oFqUuAIePwBRAQ8AkBK+ghyyqrw4U+B1fLU8rcpsG3M1BcjcuZr4ucTV89LqXApZ8uObag+M4gwqJrctMSJYmSA7fa7SKCgBIEzABrLEDz5+a3cXWgMAkFaHdJl1xQT5AVkkKY2O41QaTmKr3Zx3CXM12UWaZAtTJ771SqlT1MaZRmrDCvYpgNMNYQL6y1JI/NhF6gZZAgBcwLnlyyzdvguiTNph0VxNGUWaJNKIK0Add+/8WoRG0z51kxMIE4QJuEyU/GLhG/4mtAYAIFM8l8y2WJg80h6UfToK0xfv0LJTJaQpYnT4dJcmP76ltoOFSXaUKaNobcXKCr7eWyTvE8YwQZiAprIUpNG3Y5VoDQCADHKnT6Ho9GmWS5MUYUKRpVSlqcMG0iRbmDB3jmLu3vk1bmPpJbfvufWBQIarCOskceB8stAEQIIooVw4AEAZQwvmUo5FE9gyeUKYZE1iy1GmPI3Ki//6yqt+/KunXjtKoy+74p31kT/ff9NVYav3j6VJyEvA5GdMXJqkzNOUIkjJMweOMsmeMLkqQ+kJy96n5n3NgYqVFWGcbggTsF6W+AbBb2owVgkAoIT2BYto9t43Ldv+6DgmOeXFOcqUR/oIU8zjWSx+8HLB2+g7n3qNf3Qanfhw/KcQKVOjIEakqUYITL2CTm6m0oS0JxvCE83ec+sDLZL7LplWpVMhNgFF63UdSMkDmcgSV5vZC1kCAKhkcME8S7fPD8ocjxzJ0a1SXkF/fzLiwDLF41J5eogzQqQaxbJFLKbKghCXoPixzcRNJpOeJ7t0cwTfeNOQLRKBTD6McUwQJuA8UeK5lerFH+9FawAAVJN1ySzL90FWGp1uwjS/rS2dj/E4VZ4uYq+Qpg4z5UlDaYIw2Rcd0x9lSxyECcIELJKleI5uLVoDAGAGOdOnWC9MkiJMQzFZyX3aUJIgTxGx1IlF6YSZhjRt1USaUOQIwiRTTmTvU3nzvmY/TjWECZgrSzWGLOEBAQAwlaFLrE3Lk1moYcC58zFxejZnHkSMqJOyjpqQJk4J36CJNEmjaMX2ML7tphFRcI1kiorzjygThAmYKEtcUeYxSTcEAABIiWjZVMsflrLGMelUXnzZB8dVyQVHnd4X0lSvSpyENNVbJE0jEbTu/evREbUxxiS2WlGxskJFmiCuUwgTMEGUeLxS2Hj4AQCAJXClPKvJkRRkGnLXfEycvs1FIkIqUvUslibZx9OCbzoQ7Ja8vgCaFMIE1MpSfLwSJj8DAFiKpyBPA2GSN47JZbBkcJU9TtWrcYA0cVp6+OhpWiF5vRF80wGh8AOECdhKlgKE8UoAAE0YsLi0uExhGojF3HoaWZweE9IUlp2mZ4U0bbzP963uXqnr7MA3HZD8wg8lzfuaS9GsECYgX5aC4scuwnglAAD4SJgkFX6Ioik5a4HT9IJ2lqa2Lpq18T4vSZSmRlwa5nHPrQ/oGnnBOCYIE7CBLPED50G0BABAJwouna/FA1PWQ1OnKNOy48et2Cy/kHvQKAoh7e232dJ06LiHWJqALZEddWmSsRJjAttOyfsWwOmGMAE5osTFHRoI8ysBAMCEyErLi8bQlgb8zAnLnPjWCmn63kNSulNhXA6mIjvqIjOlUnaUyY/TDWECEmTJuFGvQ2sAAHQlVpBv/UNTUqU8F49jGo9KQ5oCdpWmJ1+VJk0AwqRCnpGSB2ECGcpSvBIeijsAALRmaMFcy/dBWoQJp3MsnKK3S+a4JhtKE8YwmUtA8vpknr+I5H1DHw/CBCBLAAAAHAKPa6qzszQ9+lx6Ul20Yjuq5JnEPbc+4Bc/yiWvVqbkSJfn5n3NiDJBmEAGsoRKeAAAkCR5KC1uBvdyMQi7StMPdnjpN6+kfJ004bSbSkDBOqUJU8XKChXRRpQWhzCBFGUpAFkCAADrQNGHSam1szTd8/OUpQnRJXORPoHy3Tu/Fpa8StkSHcBphzCB5GUpSJhjCQBgQwYvX4xGcJ80Be0sTe8eT1qaMH7JrPNy6wMcaZFd5EpFhDAieX1+nH0IE0heljDHEgDAlsSKrN8HWZPXgqR50M7StPGHSUsTIkzmEVSwzrCCdaK0OIQJQJYAAAAPTZC0NAXsKE3n+kal6US76Z1jMDF1CtZpB2FC0Qfc+wFkCQAA7EMfij6kSoOQJr9dpenv6r3U3XvRX0OEyQTuufUBFu9yBatWIUyyrwkMxYAwAcgSAAAAB1NiSJO0Sl+GNG02Y+cPHffQxvsmlqaiFdvDOMWmEFKwzt137/yadOGtWFkh/Zpo3tccwCUAYQKQJQAAACnSm5tjl12tlN3hFdLE69tmljRxyXFgDUZ0qVrBqhsU7naL5PWhtDiECYyRJc5V3YKWAAAAcDGOlE230+7ededTr0ktCS2kKWiWNPHEtt976IKu125chaYQUrRelcIUkbw+jGOCMIExshQm5KsCAABwHvUyU/OskKZHnzuvch7GLylGYXSJ0/EiCndd9roRYYIwAcgSAAAAF8DPt3rZKzWkaYcZB8CpeQkT26JCnnpUZdzUK95v2cKECBOECQhZ4jcHDZAlAAAADmedzFLjCbA0NZlxAAkT20ZwOhW2860P8DmtVLDqTlKbjgeZ1ogsNIGjZClMasplAmBLTp5uF0vbBf8+a0aZWKahgWyGpwOTxoLzqCfJk3HueXxbx+q1tQHjeVqp+gB4jqYvr4lm/fEKnExFssR9I1XRpQYV1fHGIHv91bgqIEx4cJhwcwdAd0F6evdL1Lz/HXrjrXcv+ruFBflUsWKpWJbQtVdXQqDs8MA6fMwxx5Ln0UP+jpaV2bkZy+986rW6+2+6SmqH2Exp4jmafvKE909/8kTtI7xdfMulw9eGqqybkAn7H8Ep1ANPDJPn2Z62zi6+IdyFlgBu5endL1PDE7vovZb0O9TXXl1BNbcERiQK6EnxPT+k7AOHLN+PyMCQFGGane2z/FgOzplL3//c5+18WXBalF9Ik3TZENJk5pjgJiFMGF8iEaPQwy5Fq99x986v1ZhxHM37mmV31FdVrKxAql+KYAyT/WUpCFkCbuXFV5up9hub6Pv3b89IluLr+uZ3/jfd/e2tYl1H0bhgXAbwklE3WGbqVKxYCAx3KgOGlKmmUghaPU6nNFniVDyV7WnmtC2yrz9UyoMwuU6W+G0UJqYFruNcTy99+59/NLKcam2Xum5O5fuff/U9+pd/exQNDS4g6jBfstGktRejTnaZ8XGkyQxqhTSF8C2TJjSqxnRzKfGwicciOxoEYYIwuUqW4kUeAHAVHP3hqBJHhFTS8ERYiNP/GhkXBfTA13YGjSAZm01aOxEcZQqqWrkhTRtMOpZNQpqCuDLTx6iKV6twE3aXWqR+QphcRZhQPhy4DB6rxNEfjjCZI2fHRqQJKXqaPLBarZfXqKT15HlR8U8ydSpXLqSp3kRp2mKMnwKpyxK3m8p0ObOjS/H+HoAwgVQxijygIh5wnSzxWCWzYTm7+9v/G9IERnDaGKbenBynHApXzFM6CP93/zTc+IVPmXL++WVoWEgTUqdSk6X4uCWVL5PrHNBUuK4gTK6QJX4goMgDgCxBmtz1sDqH1EgVOCQlL05Q8fr9/3NdlG6+GtKkKapfJm+7e+fXrKguJ7sCJKKXECbHy5Kf1FZ9AUA7eKxSJrLE8yvdWP0xWv/FtSM/051vCdJkLZ5uPYRJVoQpx4OUPAWsu/Op1/wK1z/S0fzml6NUudgUaaokc6ux2RYTxi1xpTqroksoAa4BmLjWXjQQxi0BF8Fy8s/3pSdLLEZ/8fWv0hWXLbng/7gS3j/f99OUCzqwNPH+3POtu0YmvgXm4e3o02I/ZFXJ0+Vt5dHpZU67VGoUSkYg/ofvBKO08T4vHTquXHy5cl7jnse3QZwmliU+L6orBofu3vk1TCzs5mcQmsAetHV2hQjjloDLYDlJp8DDovL59IP/9VfjyhLD/87/z7+XusQdo/u3oeS42fhOHtNiP2RFmLI0CTD15OQ67VIJKly3P/6Honyie78epcI8U47pXiFNNbgLjCtLHPVrULyZJiFLThLWalw5ECanyhLfEDahJYCb2P7I42lNRssSdM+3/mzSCBD/P/9eOtL0zLMvKy9rDs7H063HfsiqkpelQUpee9EUJ14qlQrT8s6b12dEmv7ENGmqR+W8C2TJjCIPqiV8UipWVoRxtiFMYHJZUj1bNQDawal4P3v0iZQ/xxK06S/vSDpdLv776ZBu9AukR/abhyzfB1nRJV0evK1Tpjj1cgnIXmH3/vXjrnPJ3Bh9Z0PUjGMqMaQJRSA+kiUWCdWZN1stKvQAIEwgReoIqXjAZaSb8nbb2jU0c3pqRR3497kgRKqwLHEUDJiDp9f6MUyyxi/pUvChzbnCpCJ9bcLoTtXiGN3930yRJu4L1ONuMEK9CX2jJrL/JLUAwuR8kIoH3AiXEOeiDKnC0aKaWwLp9a7E59Ip4tDwRDjlwhEgPbIOWz+GqU9WhEmT8UttiDClgv9i//l718TIpDma1q1eW+vqTvw9tz7AsrTOhE0FNSr00ClzZc37mgMEIEwOoh5NANxGulGb666pSLtyHX+OP2/m/oIUHlSazME05LCS4g4WphIF45gmHT/EczR9YqUp0rTJrUUgDFmqNWFTmzVLxUNaIIQJjPsg6+xCKh5wHRxdOtWaXuf42qsrMtp2up/nAhCIMil+ULXrIkxy1qNLhby2oilOvmwCkteXVGUxnqNp8VxTpInHM/nddB8wUZZ2C1kK4c4Lzrtvowm0lCW+CVr+ZT1y8jQ1HXiXDo6ZqLNy+WKqWr6EykqKcbKAZGF6Ke3PVqxYmtG2M/l8wxO76I//8As4gaoeVO8c0mI/ZKXkZZEexuTAOZgSkVZRrnv/+qTXFS83/pXv+uic2mF3XASiQUhTYM/j2xw/P5CJssSpbyjhDiBMNmELWThBrRA22vbLJ+ng4aPj/j//+8NP76ZrK1bQ7TcGqCAvF2cMZAxXxktn7BLDpcEznUiWP8/rea/laBqi9/JI4QhMZqvoQRU5Y/k+yErHY/I0GcTkwDmYlAhTquuKlxvf+EOvammqNPoLQciSNGowQS0YD6TkaYaQlQCZM5hxXDiq9Pc/2j6hLCXyYvN++pv//ycjnwEgU1g60qWoUI6opLserpj3wiuYl0nZg6rV+pS8AUm+pMtD9+CcuU6/bGQKkz/VD3C5cR7TZAK1q9fW1kGWpMDjlsK44wIIkz2wbDZpFp/v//Rh6u3vT/oz/Lv8mZ6+fpw5kBGZCEc6k8/KXg8mslVH9gHnzMGkS8GH3twcp182MrM0Aul8iCvn1d5kynime504qa3JsrRD83FLEcnrCxCAMNmVts6uIFlY6OHhp8IpyVKiNG371ZM4gSBtOA3uVAZRBKsjTHFhwkS28vG1H9NiP/okTcKkSzrekbLpjr927nzqNVkSkfZ6am8yrXJeg5MmtTVZlni+paDmTRIhAGECHxKyasNc2CGZNLwJ7zYHDyE1D6RNJul4OtG8/x2cTNnCdOS4FvshK8KkS4W8o2Vlbrh8MhaI7v3r/ZRhtMqkynnl5ICpSIQolYqlwURZ4iIPQYxbAhAmm2BEl8qt2v6Lzfu0WAdwJ5mKxsnTbVL2I9P1YByTfLLfsl6YuOCDrNEomIPJXsJEEsZCcRGI7wSjVJin/HhtPakty5L4ESZzx3EHNJtvCUCYwEVkiW8SW6zchwMtRzNex9ETiDCB1OE0tvdaMku7kjUPUqbreU/C9wicj++w9Sl5AxKDA7oIkxtS8khO4YeAjB2ZPU1I0wZTikDwpLYBu50oIUtVhiyZOSxhA2QJQJjsBVe4KbFyB9o7uzJeRyYpfcC9HIpkft3oEmFi8cM4JrnoUPChz2EFH1ySjqeTdI2uaHGMvnJD7E0T9tlW45kskqWNQpbqcXmDZME8TPoIk2lwRbumg+/Sb/fspaMYdwQsRsa4H44MsahkMg8SF52QEaliAcx0El0wiq8VBR9U4JLokiyqZa7sjrXRR//jd77XSO0YnZFJbckGldCELAXJ/LkntwlZ2oJLG6QCIkwWY4xdMu1GwcUd/v7H22nbr56CLAEtkJVOl2lZb1kFG5CWJ4/stw5psR/ySopr8txxx/iljOnev15Fqe4wjb4kbVIterrPzyRkKSR+PGiBLAVxdQMIk/0ImbUhLsrw/e0PS0m/G4/5s2bgbII0hElOOl2mBRdkFWyQJYBACFOTBul4UXkDmHRJyXPBpLWyUCFMjXse38YV2WpotEKbSrScn8mohFcv/rjJ5E3vgCwBCJMNMbMyHkeWOKqkkoLcXJxUkDKZFnz48IXAq81pz+XEn5M18ayMMVnAECYHjV/yaiRMR6djDFOSBCSvr6VoxfaR8tVCmiKGNKlGq/FMCZXwak3etB3mWgIQJjABpn15602YWHZZ+XycUZAyMoskbH/kcVM/B9TB45c8GhTQkBVh0kWW2oumUE8OXm4liezozHkV2YQ0sThsVnwM2szPZBR3YFGsNHnTLEsBzLUEIEw2pK2zi28c1WZsi1PxVKXhJTJ/1kycWGApPAHuG2+9m9Jn+PdlTpwrK2LmdnQZvyQrwqRNwQdEl1JBdsf+ghLWQppC4scOxcfB8zMFLZYlHk+1l8yvCAxZAhAmm2PaYMxGE9Ja8nNzqWr5YpxVkBKyCi0ksvmf/jXp1Dz+Pf59maCsuCRhctj4pTyMX7KCtOfY6d6/PqBgf8IT/DvLTIvittgipMlvgSjFxyvda8H5hywBCJOdMSaqrTFrewdNqNoFWQK6wMJy97e3Thrp4f/n34PgaCpMGoxf6olJFCaUFLeCTDrK0oWpaMX2cYUpoQiESuKlxs2Upfj8SrUWnHvIEoAwOYAaMjEs3dvfr3wbt15/rVYNzHNNtZmQhgj0hCvVsQz97NEnLhAi/jv/O/8/Ktrpie8Uxi+p4uBcVMhLEtnjly5aRlxIE0fDNio+psrVa2tDJslSkMyfjBayBJSBiWutoc5JB3PD6lVUVlJsuSDxWK0Xm/dfML8Ulzu/tmKFWFZSQR4GO7sFFiMu5sDLovL5VFSYT93nejFPkg3IefVNy/chSvLmX9IlunS0zF3jl+6/6apwBh8PSN6dSdMDhTRtMcqAq4zIbBLbCBsFJ1SIEmfQbCFrokoMjwcLOlCWSglAmNxEW2eXn0x+48Lji1RFmaYJUbr1U9ZGl3iM1rZfPTnhMbJAPfz0btr57EtU+7mbkT7oQiBJNhOmV/ZZvg890ai0dWH8kiWkPceRMWGt7CyQZAWFX6hWKe4n1LOYGamAMmWJ97uerIkqMU6elFZpxUYwOUjJMx/To0sqy31//fbPWxq14ajS/Y/8Mikh5N/h3+XPAAD0ZKi3j7IOW19pUGbBhwJNIkwuS8fLpENYZdX+GBITJLWT2kovNZ5QBQ+yZA+Qrghh0p4aszeoKqJS+7mbaMGsGdY9/NOcjJc/03jgEK5EDVjsx9xdYMxD6fU3tNiPHknClIfxS3YUpoDkfeksWrE96f0xxjOpfrnKpcYz7o8YVfC4mMS9Fp7rjZAlAGFyEMbcS+Vmb5fH7kyTPMaIZYnXayWZTMbLKXw87glYS2FBvuOO6YrLluDEZkDJXuvHL/HYJVkJebqMX3LhhLURjYQpZXkT0lRP6udn4tS8tMfGCFGqMdp5nYXneYOQpS24cwIIk7MIWrVhTp2TAY+H+ps/Wm+5LHGEKJPJeDk9D6l5AOhHjgbC1O3A+ZcOuK86Xjitc79/vZ/kv9gMp/k57jOonJ+Jx2nVpyFKHFViSXmMzJ+INg6nLK4RslRPAECYHEeNVRvm1DmOCmUCV5r77p/+d0vT8OI0HXw383UgLU8LnBaRQZph+gxoIEuMrPFL/IDVJcLU5Pe76VLqvP+mq9JNyVMxfiktYTJpfiZOzUs6/U+IUoBGI2Z3WXh+WSK5bHjYRde0q77AECYXY1THK7dyHzgqxNGhVNPz4qLEFeZ0Kct9ZEzp8HQ4eBiV03SgqLDAUcfjxDRDs5imgTANxWKOKyc+cr9zV4Qpk450QPo9boIJa5OUJjPmZwoJafJPIkrxqNIui/syPMdSlZAlt1V5k93mqJKXIigrbh41OuwER4f+QcjPyJxFTfvHlQYWKv49LhZRuWyJNpLEY464RPjBliMXzLUE7Mui8nn04qvNjjmeihVLcVLTRId0vB4HVsfj+ZdcNn5JJ2FqynQFxvxM3IeoVtRe8dS8wASyFDD+v9zi87pNLHWYkFbCc2plBdoQwqQtAZ12hqNNVo9DShaOJu189kVqOogUOrsTjUapp6ebes510+DgwMi/rfn4ipHFSRw7Ghn5mZ2dQwWFRVRQUEReLwL6F4PT8Tw9vZbvR1/MeeOXXDb/EtOQzoe696/nAgiyy2KHJa0nXmBB1Zihak7NYzlLECVujxBZm34XZ7MQpRDulMAq8AQ3j3VogtRhUfruj7dDlhxAX28PnTxxlDo72j+UJafDx8nHy8fNxw8mRod0PK6MJyvClCNkKcuD+ZcsoOX+m66KpPnZgIL9kSJMCfMzqeTD1DxNxioxXNzhNjfLUvO+5ioCECY30NbZFUArpA6X/t753EvK1s8V/4A5cESpre3USITJjfBx8/FzO4AL4clq9UjHk3d96jR+qdG/0E2XU0MGn9VWmAxp4mPbqrDtSrzk2W7Mq2T1WCWG0xm5uEMDuZtSBe0KIExaAmFK9QF/4BC92Lxf6TZ0qPbnBvr7++jMmVY0hIDbgdsDjHkQvf6GFul4MscvFaE6nlVkMieP7Gd1U9GK7bLHioRIYanxKMU+cTzWqkNGzA5DllCcQD4YvwRhgjA5hW0ZTEqbLPNnQ5hMkYR2yBLa4+KUaFJOvEdiOfEcjF+yxA/TTcdTNH5JemffjFLjr8QO0CANWXkeebxSDYo7fIgfTQBhcgvVaILk4Qp+PLGsapZdsgCNrboDeq6bhoeH0BAJcHsgNe8j+lvPoDqeQlyWjqdTdIkJqzhIo9T4ZlWNyLLE0mQB8cloQ7gzKhWmCJoUwqQdbZ1dGKyX6gPehAllefwSl00HijvDSD9Du0wmF9pEl+SNXyrQpCIilxNvmzLFLZcSd7YdO35pHGliqVA2FuV4rHVkMZHdLAYum4zWKiBMaYCy4uoJoAlSlkzl27i2cgUa2gTcUg0P7ZI+xc88q4kwOS/C5Lbo0v03XZVJCpfsZ3VL0YrtqjumQUPKlJQab4wdohmeUspW31VEyfCLgxfvGoAIEy507VA9KS1Hlz69+ko0NMQA7WIxA0eOk7e1XQtZkhVf0ikdz2UFH+rT/aDm8y9NiJGap0w0eqiP9seUOh9S8JJDdpU8FNKAMEGYnIDqct+fXr2KykqK0dDAuhsvJrEdYdrTukSXZKbj6SFM7UVT6EjZdLdcStsymHuJUVFEIWzGgRsTze5Wtf53Yseog5SMueQqeEjBSw6/5PWhmAaESUsq0QSpobLc93yx7luvvxaNbBK5uXlohHHIzs5xfRvoMvfSqDDJTMfT47Ha6K7oUijDzwfsKkwGQRqN1ijhlaj0AhAbUQUvJcrRBBAmR4OCD+mxrHy+kvVy5Orrt38eDQwxQLvoINMazb0kMx1Pl4fqi8uXu+VS2pxhdEmFMDWZMH7pQ/Y8vi1CClPzOqmb3okdldIuYlklRGkLgaRo3tcsOx2PKlZWhNGyECbdgDClwbWVK5XI0p9/9Xak4plMQWERGmEciopwHRY985wW+4F0PFvDUZWMOt/d+9f7Sf4bfNM7pJya5yXP86rWvz/WkuncTFuFKFVhIlr0IyFMYDz8aILUYam5YfUq6bKkMtUPjA9HUvLyC9AQY2TJl+XuAqXDBw5R1uFjlu8Hq1K3A9PxfnvFFW65lOoyrIzH2Hb8UiL33PpA3c3e1RWqKtplMDdTC40WdqjD3T8tZEeYmtCk6YGy4ngzoCW3fupaOthyNOOKecsumU933v55KsjLRaNaxNSp0+nUwHFMYGsI5JTiUte3Q8nzr2ixH7KjS7q8gXRJOfHdQpbqJawnYGdhEqIUpNF0vPJCyqMVnnJqiqmZy5DnZTpNHSOlxpNkK+8bxipp1Y/EuYAwueLNgGtgwfnz9bfT97c/nJY0TSspps9d/3G6tmIlGtNiuCJc2fSZdKa91dXltFmWps+Y7foKed6z7ZSrjTA5b+6lg3PmumGyWk7FC0pal2xh4vFLyjulQpQChihVJ/77Us98isROjow7UgFHmdZ6PjbZr3FUKYgKeFr2I5ESCWHSkmo0QWbS9Ld/tJ52Pvsi/XbPXurt75/0M1wFj8uGQ5T0lIWzXR3U3d3lqmNnQSosKh5JxUM5caLcXa9qsR9RcmZ1PJcUewhJKPTA45dYOmRP+tpghSglco13OT0TfU3NSwZjbqYVHv9Ev4KoklwQYYIwOZu2zi5ElyTBZcBvWH0lNR18lxoPHKLevvPFaf7sGSPjk5aVL0BRB83FoaR02khKWl9vD/X39zk6Tc/nyxopq85juCBKH5Hv0LmXdDjDvTk59OIyxwsTp+LJqrJmm/FLQpTYUPi41032u6VUNJKax4UaVMBzM3Eka8x4KUSV1OCXvD5EmCBMjn8r4Go42sRRI0SOnCFOXD0PFfTcR+5Lrw17enp9egiT89LxXDB2qVOy5ARk72DRiu1ShcEQpZBYalP5HEeAODWPI0Ky4QIQjbF36RrPpfF/QlRJHbIrOOIcQZgAAADoTMFjv9FCloZiMUem4/3O+dXxAhKq4o1glBOXPbH8DqtFKZFrPMtpd0xNUbQWIWMLaOah2Z5pX0SpcDU072tW8eId5wrCpN+NHU0AAADGw+ZQpM/b2p6nw77Iji7poEtHy8qcPvfSBiFLMjt7Kp7RYR1EKQ5XsyunWSNyo4L/ir1xdM+vt6EDrg4Vk9YiwpQmSKwHAACgnLzdL+Xpsi/dDkzHc/jYpW2SSognomL8UtoFH1iUxMLH+L4MWYpT5VlC2erejVevXlsbxN1NGbKlfjeaNH0QYbLRmwEAALAjnu5z3bnPv6LFoDVOxxuIOS8dz8Hjl1iWVHTKZXdGW4pWbI+kI0okKaI0HixLlZ7F9Gp6k84mA+97PQEV+CWvD9GlDECESR0o+gAAAIK83z2vTYUPmdGlIo3S8Rw695ISWVJUTjycqiipiCiN2+v2zKYZ6t7hlq9eWxvCXc4WwoT0SQgTAAAAbYVJk4lqR4VJZjlxTeZecmY6nqrIEmNZOh7PoySWsBmilEild7HK1dcJaUJWjXxkz+UJYcoApOQBAABQRvabb/d4W9sLdNgXTsUbkhRg8hLKidtUlpiAgnWGJxMlmmTCWZXw3ExLPfNG5lBSQIlxbHW448mheV+zX8FqI2jZzO75QA1IyQMAuJ7cPY0FuuyLE4s9ODAdT6ksKSonvrtoxfaOCUQpKBbuqO6ySpbi8NxMCgtA3LV6ba2fgLZ9yIqVFYgwZQAiTOooQRMAANyMZ2BwIPf5V3J02Z8eB6bjOSy6tFHI0hbF21CejicEidPTWPo44lKuS+OaVAAiSEBHYWpCk2YGIkwAAACUkPP6G9rsS19UXjpelkefCFOT3++ES6VTLLeZIEtMQJUwGYUc+BgiYrlXJ1mKo7gARO3qtbUBAjoKUwRNmuF9H00AAABABXlPhrWJLjmx2ENvTo4TJqvlN99ByZPSjn8N7F/PprBO8mpbfnj3DcJaHwiRiUUcMmGFp5x2x5RVmA4pklIIU2YgHS9DEGECAAAgHZ57Kevw/2XvboDjOPP7zj8zeCFIggAkciWttFqM9k3rpY4AnbXO5TeM1rk4kV8IpfZcdmWvMNy7jX0u+wjdi6/K5wuHdYmrkjgW6PhcjpVbDuv2HN+eYoG2S46dZDWwHb8oXhNAiVpp15IGK4lLaUkJICESBEDMPf/B0+QQHAAzg366n6f7+6nqGi5XnOl5uqef59fPS7/lzP5cDXk5cRd8/f77fT9NTuqgNBxFWDJCH473ylfvkxvPz/sSlrSFD2QGTnSo7L+x9P4j9DLtzOy5WQn2YfdOEpgITAAA1+x6YbrLpbAUVv+SDMfrzjgSmD7obWCa09tjOihFvapa6A351178wAM+BVS95X7+9z9fvKHWfkGtD4W0ocgVcEdsLBpGYCIwAQCcC0x/8pe73AlM4Q3H68u6U2162sN0QhqEOiyVY/jsUHuYlpc61evnPuBDmZ/W20M6KI3rrTYW74XnTlf0i605Y/QyuRXsFw4dPFShWHeGOUwAgFBlLy9e7fzmW84sJ341gcuJezh/aUqtz1WKpeG2+NLnJCyFunrtW68O+FDmRR2SNgunEpgKys7iFPLePF7FjcBE71IY9RpFAAAIU/dfzXS4si+y2ENY/UsyFK/TkeF4HoUlabTL8Lt8XGHJCH3+ksO9S7Uy10Epv0VYkl4m6W0qWtqHoUcfHytwNWwLCz44iB4mCy4tXM5RCgDSyq3heMlb7EF4MByv1rsR09C7tAYmmRtW2CokNQhNJR1sZC7ZkIX9kTBW4orYvNlzs9J+DPs5ngQmApOb9vf3VXRooiAApI5ZHa/XhX1ZU8kcjife3L/f1VNA5stMRLjy3bYWX/rccNiN0POvDajr15xpQklQkqF37YYTCUzPW9ivQellklDGlbFpeQvvWaZYCUwAAId0v/iKM89eCnOxB5eG44lL+/a5dNjlWUoyZ2VSB6V5B0/LQthv6Ejv0k6DUo0ONGUdbKRHcMTCPkoYIzDFF5hY8IHABABwLjD91YxDgSmZw/HEG/sPnDaNq8GYduGMWr9zPRnz3KRmhD4c77UXYw1MoQSlDYrKTi+TzGXKSyjj6tgU5i8RmAAAiQ9MZ190Yj+SPBxPm9EhpSB/+Ok/+uqwCU7DZrMxF2XBNLyk0Vt2aF7S9sHmD3/m++95MNxQefFbverKez1JCUo1ppdJQriNB/AWlZ2hZoliHlgb9u+XoEpgAgC4pOulr0vDut+FfQlzOJ6EJZeG42k3h72ZuUK33UXWIUoapwMmQAWvgUbzeWbq3nPevF/wOu3oMLst/bMf+aL0KhW+78f6j9zzYLhzis+/eldiglKDYGMjMI3Qy9QUG6GSMicwAQBc0j37tX5X9iXBvUvbNoLqeoAm03T+6ZAkYVDmzNx85tJDB78d+ue8/FcfjOorybyiCR2UIjmO8jBbepkSF5gYkkdgAgA4VaG88qoT+xH+cDweWehwSMrVhaTbht4duH9R7btrKdTPk6F4F89bXwRyuwfO2lRU9nqZhnUoowEfXWCaOXTw0DzFSmByna0VZwDAOS4tJ74Ucu+Sg3Ep1Y1OE5JqQ+7UFnM+Pvnpb4X+2ZZXx5PenVJMQanGci/TuLKwYmESMH+JwAQASIGul77hzL6EPX/JQam7a6xD0kBdSGrqZqRHw/EkoEiPUsWR4i5aCkxjOowVJZRxxbxD3sJ70ptHYAIAuKT7xZd7XdkXhuMlLiTJdqSVf+vBcDxZIEWeXSVzlJwKwBH0Mo1zdt9h1MJ7lilWApMP5ERlSB6AVOhyZP7ScrWqwupfcnQ4nkjsneOdhKR6Dg/Hq614p7dJ14LSBkVLgalgepmYW3O7fMjvN8cDawlMAACHZBbfv5K9+O4+F/ZlKdmr46175ulENTbr5iTldxKS6jk4HC/SFe92ymIvk6xeWFDrvWtQtflLcv6H/QDqMiVLYPIFyR5AOiqSb7615sq+MBzPu5AkjedQJ7tLWHJoON5pE5R87BUsKnvD8ghMtzAcj8BEYAKApHPp+UtL1XACk8PD8XwOScMmIOVV+CuC3fSRRy6G/p4tDseTYXcl5eD8pFaYXqYzKqRevzqD+n1H9ftP8quoyVt4T8qWwERgAgCnKhJH5i+FORyvJ5PhwIYTkoL5SNIoHIziM2McjifD7mRZ8FKCDuGEhcAkxmnU3xR2+fL8JQKTP/b391UuLVymIAAkvyL55ltuBKZqCuYvuR+QciYc7WjRhp2Epe6e1VDfc5vheAum4e/rsLstvfDc6fKjj4/ZeK6kPMg2l/YlxmfPzTIcj8AESfnK4rADl1z8xuvq+uL7if1+Bz7+kNrVu5czGthYibxxXsY/HXBhX5ZDCkydGdkITC2EpCAg5eOu8yJcHU+G3UnvS8nnYXdNmlB2Vv1liXHmLxGYUFNJcmB66+yLavrLv6te/9O/TMXBPPCxh9TQj/+o+o6/94Oc2UBQibw2t8uVfQlrSB7D8bYNSDl1qxdJXp2Yw7Zr96p66GD485c2DMc7bUJSahqlMtfo0cfHJCCGPaSyQGAKf/7SoYOHGOpIYPKOdM8fSdqXkp6kP/nVf61e/oOvpOpgXvyb19V//KVfVS988bfVD//SL9R6nYDUVyKvzjmxnPhqiM9f6nF9ON5nvzAQ9dLiZi5SXjnQi7QZG3OXzHC8NPUmbaaot1Mhv2e/DmIFHchKaSzQ2XOzwxZC6BlqJQKTr4EpcWHp2Z/732rhIa2uXHhH/c7P/YL6+//ylwhNSL2ON847sR/L4U1f8qGHSRpaZcsBST4jCElePIT90Pe/EX4QX+74tzokfZZf+vo8LRV+b2JBra8omEYFC+9Z5lQlMBGYHCA9S2kOSzcbZ+9frYWmsWf+NXObkO5KxJEFH8KavyRLiadx/pIJSPm6rd+n/ZfnLh344GLo73vXve//Y37ltWF5848+PibB5ljIb53mxR9szF9iOB6ByT9mpbwF3yqezcicpbQNw9suNEmA/Nu/cIzCQDorkAQu+NDjx+p4A2kPSBvZWOxBm+n91Jem+aXfNGEhMImCWh/ylxqWhuPNHTp4qMJpSmDylVxsRxLxRb78uxzNDSRAfv//8N/Ry4RUyr5z0Zlnu4YVmLr96F2SxlZLd5KTFpAiCkwlfuW3WHyQbeoCk7IzHI/eJQKT18pJCUxpWQ2vVa/9yV+wch5SqeOtC3e7si+rIc1h8mSFvFwTASkIRsNJDEj1Hvjoe7UheTRAI1GyEJgGdRAb1oEsTb15o5aODQhM3krEBUCG46GxK996h0JAKnW9/DdO7EdYy4nXKkU/pi/lNoSjXF0wkteRNJ2Hn/z0BRtvO9X7qS9V+JXfzuIS47K8eCENZWhpON7CoYOHGD5KYPJamSIAkEQdl95zYj/CWk7clwUf1lTm07/8I18crwtIg2k9B+XZSw//LYbjRUzK5njI7zmaovKzEQzpDbUsSxHYtb+/T57ZMENJAEhcBXLxXSf2I2Xzl3TFXd3bn7n+lFofGjWY5nPQxrOXaIDGEiblmUxpCU2sjkdgwibKFAGAJOl468LbruxLWD1MnR6tJn5P9n1OQmXn2Uva6d5PfWme0m3MLAFu4wGpiQ9MFofjEZgITAQmAHCu8lh8v8OVfVkOaQ6TT89f6sucT/speOaTn/7W8WafvZS9kFWZpaaPL43PeMooDT1M454cCxCYCEwAsONw8dpclyv7ElYPU7dHgenD2cvqP1dfVitqNVUhSW9H9XbXz//+50c/8+Nf23SVxux8RvX8Trfa+ys9qvcf7VZ7fn2X2vtL63/u+a1u1XV207w/1/upL9EA3cYLz50u6ZeFkN82DcPyGI7na51HEdgn85guLVyeUilbuQhAcmUXrjizTHVYc5h8uoP48WxGvaveVuW199X3ZA+qvaonySFJGoSTOiRtHCZXaBh8n+/S2+bNm86XO2pb15+vqaW/v6LW7luj8dl+Q33MQqBI5DGYPTcr52vY102G4xGYEnlhITABSISOb76VuO/Unc14tb8jHVn1+6uL6j+sfVV9T+ag+kBmIAmHYcHUl+VNQlLN4kufa9j4lF6lzunmRovKML3dX+xW1z6/XB+aJvh1N61kKTAlFb1LBCY0eVI/RTEASILMtSUn9mO1Gt4zmHwbo74emNZqw/KmqjNqSH1UfTzzIR9Pp7m6gNRsA7Cw8S92/UFX02Hp5nm8lKkPTTM8e6l5Lzx3umzhmUz9SXyI7ey52ZwK/4G/BCYCU/Ls7++rXFq4bONhbwAQfeXhSA/Takh5qTPj3zGQwLRP7/cVUwYz1VfVvFpUw5mPqS73q/cZE5JKOiS11DhefOlz0vi8bcSGzFnq+vP2vvPN0PRT13+TX3ZbDfZjIb+n9MQk7SGsNnqXGI5HYOLCknY92ay6r2dX7c+53bub+jfzK6tqfnVl/XVlhUIE0EJlmPFyv4NepsBc9W01X31ffVf2YTWgel3b3TPqVk9SZQfvc8dKY91f2dkaJBKa9vzLnv9enfzCb6lnnmZJ8eaVLAWmYsLKadxS2YPAxIUlTeEot2e3um/Xrpuvu7I7Hxzz9vXr6sL1ZVW5ek2/Xq9tAHZude6CNCgHKIn4/WRnx22BSSyoRTW1NqO+K/Owuj9zIM7duznUTl43m4/UisWXPifnXWHj33e8HMKAyjX1iKmnRzmzmiND5ywMyxvS7zmg3zsRwXX23Gxe2RldRGAiMCXT/v6+6UsLl2UYwlDay2Kgq0t9snevGu7bp+7dtcvKZ8j7yjakP6PWiFhZVZVr19TLi4t646GPQLuyS9edCUtLIc5h8pGslvcJvX19w7OoZF7Tn1XPqY+rB9RQ5mNR7tJUXUCyMaxKwsxtiz3IcLwWnrG0nSPqs18oqmeeLvJLb5qtYXlJCQQFGzcjDh08NM2pR2BKMrkAeLf4w4GPP7Tj95CepE/29qrvvqvfWkjaSn9Xpxrq2lcLUNfX1tT0wmX1F/MLDN8DWrR2MXkjlnqyGW/3XXqZTiw3fh7TN6pv1YboydLjluY1zalbq9qF0ou0jTuGNmXeC/3YHdehqaxDU5lfe2yBKZ+EwGQWexiz8Nas5khgSsWFxbvAtKt3746C0nffNVDbwhhqF8r30fvxX+r9ke2Vxfd1cJqvDd2LumwAH3VcfJdCcMgPd2bVb65k1Lc26W37tppXz639ZVhLjy+o24fZVaL6nosvfW5YRTdCY1KHphzzmbZnVsuT8yLMZwzlE1I8BYttSRCYksuslicTX4/4tu/77rtHXbnwTkv/RkJSfv/dzgSlRh7WgUe2mctXVPnSuy33OB34+Ec4sZEqezL0yrrmH3Zt3sskgqXHP6UG1acyuVbf3vYwu2Y1nDjfUemw8Vn95jvnObuabsCH2ZMyqENYToexiuflYiMwnTl08FCFU47AlAYlHwNTXwuBSRZuGNX/fRxD79olQ/VkXpWEpr94r/mbivs+eA9nNFIl22ZvLOzZrpcp8FJ1Tn27urDdED0JSGUTkMoufD+z2EPDBnn2PWvDKUfUZ78wrp55muFP2yur8Iee5ZXHw/Jmz81KWLKx2AO9SwSmdNjf3zfp4zOZZB7TW9MvbvvfDff1qSP3+RkipCfshz5woLaU+eSFt9XS2lpTQRJIkw5HnsGE2x3f1al+emn73r8GQ/ScC0gNbLosc0fF6giGog5Nkzo0VTjDtm3EnyIw3aZg4T3l2UslTjcCU5rICX/cpx1+4PAjaub/+70t/5vR++69uSqdz2SIXuHBB9Rvn7+w5RC9B4Yf4UwG4ITvzGZqz2WaurH9jZ5giJ6qqhMvPHe66Gvjs7ZC3rzVBTv6TX2d5wzbnCwB/ujjY2GvAjzsa3nMnpuVfR+x1HZEDLIUQWy86+Lfbq5OUsJSQIYT/vTgg7Ul0LcKkQDgiuPdnWpfa/nhuG7oyrN0cq5+p8WXPidhqeGIjI6vdUSxCzI0j2czba8c8vvVnsfkaVmMW3pfhocSmNJlf3+fTJI57dM+y9CzAx9rvLy4LOyQpLAUkCF6P3H/fbWV/hr5yPd/NyczUidzbYlCcFSvDkv/qLvlwSPSKyChydVQUNjs/+g62xHVPkzo0MTDmqMNTMK7XiaLS4lPsdgDgSmtir7tcKMeldye3WpEB6akure2gMW9d/x99949oTyfCvBNJ3OYnCbD8uTZTC2SoWfP6tBUcumu/uJLn8urTYY2yXC87IXImjHSwzXO2RV5YMp7WA4FS+9b4hQjMKWSLDGuPOtl+o6/94N3/N3ovfcm/ljJnCYJhreVxeM/yEkMwElPdneoT7T3MF65My7P1XHlzv6mjc/ur3RFvS/Ha89mQkMyj0m/zIT8tl71MM2emx2wFKxZ7IHAlHpe/QCkR6V+WJ6siNfflY61Q/IbetEahUcAcMVv7OpqNzTJEL2zOjQV49z/xZc+l1ObLSU+n1Gd0x1x7FaRM2tL5ZDfz7eAKmGp38L7MneJwJRu+/v75OIy5dM+D/34j97883ff1Z+aYzW4e3ft+VK14KhDI8PxALhM5jP9810tLwJRTxaEKMe4IMSmd+q7n+uKq1jH6GXaUtgPNh7y7PsXLL1viVOLwATPxkVLz4rM35HV43x6MG0Y5MG2G0MjAP8rseVtHvjqqw9mMrWeph2EJpk/JAtCFKLcb/Og2oaf2fm1DtX5ckecxVrklxdZYFIODQ/dksUH1Z5msQcCE1Stl0kuMF7NZRr+8R/TgSl9j/GSeUz77ruH4XiAI7oz4TyDZ62a3DL6eDazk+F5QoYSnNIN18kIF4QoqAZDmzJLGbXr2a64i5Repk288NzpaQtv60tZ2wrSJc4sAhPs/9CsGNKB6RMfOJDKA/Xo53+CsxVA2kKTOKK3SkTLjzccebH7i9210ESd7bSwpxk438NksXdJlhIvc0oRmGCYFfNO+rK/u3r3pvKhrd1799K7BCTQqqom/jvKnKYv9XSpH+ncUdUfLD8+Yau3abMH1fb8TneUy4hvZ5TnMm2qEvL75Tz4zrYCdInTicCExj+4BV929q7PfF/qDlD/hz7IWQo4pDsbTm/DajU9ZSYPtt3hYhDimFqf25SPovEpYSmmVfG2Co4FfoEEJou9S3MsJU5gQgP7+/vkGQbeLACxtv+u9P1gPvERTlSASsx78nDbMz3dtdcdkEbi82H2NpkH1Q46HpYCPMi2sXKaApOy17tU5FSirsHmoUnuJnixzPjqhx9Q1d09qTo+K5/8GCcpkNCKbGmtmqpyC5Yd/42ertpqejsQZm/TzUaiPGtpz6/vcjUsrQfGz34hzy/wDvOhl7OjLPYuyWijSU4lAhO25s1dq+vf+12pOSgSDpdTOG8LcF1oK+WltPy+M5tRZ3Z3qePdnTsJTkFvU6nd3ibTuyTLmNeWDt+tw5JDc5Y2U+AXeDtLK+W5qmjpfScOHTw0z9lEYMIWzDLjJ3zY12v/1Q+k5rgspei7AmmU1GcxNeuHO7O14CS9TjsYqjem2l9Jryi9Sru/uEv1/BtnVsPbDos/RMDSXLkdsdy7NMFRJzChudBU1C8zru/n2oG71bUf+zuJPx4yX+sagQlwUk+WHqYwSViS0CTh6X/s7mhnKfJgJT15blOumX+w8stHx3t+p3tkz6/0qI6KV02T/lpowkZTSf5yOixJSC5aevsSvUvu6aQInFbQ21nXd/LqkR9SXWdfVJ1vnE/sgbjys0dVdc9uzkggwZZlDlMH5RCQ4Xk/0dlR2xZ10UzdWFNf12X01bX11ybIc5vyOjQVX3ju9J13zNcf/ipho9ClOoc8Lir5DiXOmFSRqRO25lbRu0RgQitkaN6lhcsyNO+46/t6+ed/Rg0U/4XKXnovccdh8fM/UVvgAoCbekKaw5T2IXlbkQUiZMjeD9f+13qq/IYOTed1mQXhSV4X7/yn0gPz1P/8o0cLn+vq+J3hbEa6j4bNNpiQ4slzhqSH6V2yNdf89KGDhyqUMoEJrYemog5NcjEecXk/pfdFemH2/dqpRIUmCUtpWtgC8LIiC2mqy5rZGKvenI9nM+rjKqNGmuuVGzJbEvWrz35hVD3zNKua3TIdcrtF2kFlR75b0dwIsPXecBD1gh8KyoMH2kovzHzxf1KrD97vfYHLiniEJWCTYHHgbscCU3iLAyyv0cuEthv0uCWRc3Bmz83m1Poy+jbQu0Rgwk7s7++rKE+WLpWepgUdmpb+9vd7W94S+GSIIWEJaOyGgw+tDmtp8SWG5YHAhM3ZnF9UpHgJTNh5aJKu/hO+7O/7PzlaCx0+9TZJr5Ks+CeBjzlLgF+6Q+pkYh4T2jTE8uLJNntuVkLxEUtvT+8SgQkhhqaifjnjy/6uPPzRWviQoW1rDt6Rrnf9e76rNpxQVvwD4J+whuUtMSQP7ctTBIlG71Ka6xiKwDsFtT7x0ZvJszK0TbZd/+k/q55//8fOLD8uPUryMNolvW+uzckAXFb7vbzyqlP7FNZKebLow2q1Guq8KKSGrPzHwg8JZB5Sa6vddYLeJQITQra/v2/+0sJleeaDrEDT79O+B8Gp85tv1cJT99kXY1lRb/nwI7WNOUpAe27cc+C6ftnl0j51Z8MLODKPqZfAhNblKYLbwmNSwpIMtbTVu7SgeO4SgQnWQlPFLDVe9i00CZkfJJvMc5Lw1PnKq6pLbx3nXlEdyyvhB6QP3qPWDj6sVj75sVpQArAz1d09F5Rjz9CR8eWy8EMYc5BkWF4vA9aR4pAQgrDnc03H+F2KFttaE4cOHprndCEwwV5okofayoPTTvn8PYLwJEPjao2ei+/WhuzdeOnralWHqey3L6kby8vqA9eub/k+78rd5X29qrp3j1IfGVS7PvGR2rAhmUcFIFxrdw/0uLhfsvDDcghTkFgpD22S5zHl1DNPVyiK0MUSKmbPzUoItrWMOL1LBCZEFJpKOjQp30PTbQ0xHXKWZX7E4UeUDIiRZovc6L3U4vtc5/QArLlxzwEn96snm1GLISzasFplHhPaltMbgSk5vW02A804vUv+YNBBAkKTfjlKSQCITFfnkou71R1iwLnKanloT54iqAl7CFvkwcIs9DBi6e3ndFgqcZoQmEBoApBQN+45MOjifklgCqtSY1ge2pT6ZzE9+vhY6KHxhedORzqHyfJCD2KcnwqBCYQmAIhFT0ir5dHDhDax8MP6sMQwLcTwHSQs2VroYerQwUMsP+8Z5jAlLDQlbU4TsBMrK8vq2rWrtdfq2prKZLOqq6tb7d69p/aK9sliLbLKpWv26MAUVtiR99mTZR4TEHNojLp3Ka9fxix+BL1LBCYQmoD4Xb++pN5796K6cWP1jv9vSQeoK5fn1a5dPWpf30DtFa2TBz+7qCfUeUxrOjB1cLDRihGKIPR5XJUIw5IMxStZ/IjThw4emuYU8Q9D8hIamvTLEyqebmwgVgvz76qL377QMCxtDFXy3119f5FCa8Nq7kEnF36Qle06Q8pMDMsDWvPo42M5/TLka2BS689csjVHU9pk9C4RmOBYaJLxsXlCE9JibW2tFoAWFy+39O/ee+8ioamd8t5/19uu7tuebDhV2xqhCWjVqIX3LEex45afuSR4SC2BCY6GJun2zelthtJAkklv0dsX3qy9tkNC043VVQqyBSuf/JizYxn3hDgsb3FtjYPtsOVqVS2trW/O+OwX0rzwQ8HCe0Y1hK1k8b1lGfEiv1gCE9wNTXI3I6+305QGkujy5flaz9LaDhu28j5oXnXvHmf3TVbKC6tykx4mIpNbJBy9s3pDVZZX1fmVG+rC6voW/G8HQm4ljcfF0nC8mReeO2394jx7brZoYd9tB0kQmBB2aNKb/FifpDSQFNIj9M7b52sLOITSML66uOPQlSZrA333urx/Ya5ud5Xzwo1zTm/vmHC02VBJ6XG6uLqmLujgtBrXs7SeeTqtd1+KFt6zHEFYyuuX4xY/4syhg4fK/IIJTPAnOMlzBR5TzGuC52Se0jvvnK8tFx6msN8v6WRpcXcDU3jV2+UbzGNyISxJCGp2Tpk8eFh6m5Z5AHEkTO+SjaW4rQaNCFbFY6EHAhM8DU1y8ZEL2xSlAd9Ir5IMv5OV8Gz0BrU7Byq1jdj9dzkcmMIblieNbhre8bq42nr4Wav9uzWGVEajaOl9yxHs96DN9z908FCF04PABD9DkwzRy6v1IXr0NsELMsdIepUINe5Y+cRH3nZ5/8Iclnf5Bs3uuEivUrurFUrI4tjZ9ejjY9KesNG7dMbm/KXZc7Oyop/NVfFmdFia4AwhMMH/4CQ/ZLnQsYoenCUB6cK33qzNVbI9x6izg2d5txSYDj7s9P71hjgsb5HFH2Kz08BDYLIalmwOaZu0GJZsD8UTBc4QAhOSE5qm9SZLoJ5Q9DbBITL87tKld5p6CG1Yurq7KfgWrN094HSByWp5neF1MtHwjuMcU+vzkXb8HjxPyxYJHbaGtE1a3u9+i+9/8tDBQ9OcHgQmJC84FfWLBCfmNiHeBtLa2s3hd0vXrkb2uR0dnaqri8DUiurunruqe3Y7vY+9oS7+QGCK2nJIQWeJOWihe/TxMQkdRyy9/Wlbw/Fmz82OW9xvMafszekCgQkOhKaKmdv0hPnBA5GS1e/kAbRRDL/baM/eXg5AG1YfvN/xwBReF5OckTzIFrgZlsYsfkTJUliSG8NPWS6ewqGDh3iwH4EJKQhO0g3OMD1E5ur7i7V5SrZWv9uO9Cz19Q1wINqwPHzQ6YUfOjOZUBd/mKeXCekOSgMRhCV5WG3ZQliKYt7SSZ65lEzMcMZmoUnujhQvLVyWi0vR8sURKQ5KMvwuqjlKjWSzWbV//z0cjDa5vvCDkGF5V9duhPJeq9X1XqYwh/phcz4OpdOBQupPaTTLzcdJmyu9Rfy9hk3gGLL8URMW39fmvjMUL8EyVcb1ogk6OOXMhXKE0sBOSA+SDL17X29rMQ9vkp4lCUsdndw7aj9B3Li2/6d+frfru/nmymot7IRBFpL4UBfnTBSkRy+MXr2BjmxtiyRYXL3jAdhTJjyVdXjyciEAHZYkCMjcn37LHzWnyygX9pvOnpst6JdTlvf9MXqXkosrPpoi85v0S14Hp7xav4NCcEJLVlaW1eKVy2pp6WrsQUns2dOr7rr7AAdmx7VIx+7VDz+gOr/5ltO72ZfNqndDGk5HL1N0wnpgcJirJbZhJKgzdfCQXoiy2ZzvfdL7W1D2H+5ar2ghLA1HEJYYipdw9DChLTo4yQVI7jYxVA9bkmF3V68uOvPAWRmC199/N4s8hBk+v/x7S7v/sNzj8j5KVHpzeTW0ZylJA/z+rk4mAlt2fuVGKKHpvs6O2jLzkYSMO3uYtiLPQZwOQpQOUBUHQlJOrT9DqBBhUBJT+vvnQw5LA6Z8bX4PCcHDLPRAYAK2Ck5yYS3qTZ6Y3U+JQLjWmxSQIXjSq8Ty4SGX69dfu9D3T//P+1zfT+lhCnNp8CiHeaVVZTmc+Y33d3Wo7oyTgWmjhboAJa+VKIbxmflJeROShmI63IfD/q46MMlQyCOW95uheAQmoOngNGAutNLrNEiJpDMkSW/StWtXY13EYTO9vX1qX99ArYcJIVckq6tLd//U/9rj+n6u6vruzZUbob2fnEkf6qaXyRZ52OyF1XCOV647mhkI39Ln2JFrKzbeWnqiKiZEzZtXMd3KsD4TjKS+lteceXVhiP1J/T3GQw5LRf1y3PZ+67A0zq+VwAS0E57yJjwxXC/pDRodjmSonashqdao1QHprrsOqJ7dezhgFvWf+BXn5zGJi7oBvrgWXr0nz3k60NnBCWCB9AaGMe8sykU6/lqfWz+9tBJnsc2YQHUzKyr3b2LWhrSFOZ9LhyUZ9fKs7bLWYWmYX2o6sOgDQre/v6+sX8o6OMldF7loyesQJeM/6UWSgCSbhCXXSUiSsESvUgTnxiMPv6cD012u76cMoVtcC6+XScJXX7Ua2XCvNLkaUrBN2bHxsa4dDTksBcuf2yRDJwv8StODVgRsBqd5vZX0Jhevh/T2pFq/+wW/yN2/k/Jg2XfePl97uKzrYSl4tpJshKVoLB9+ZNGH/ZQH2faGPPn/4ioPsw2blGhYz2AizDrtyTDnLdU9nNb2nOrioYOHpjl8BCYg7PBU0dsE4ckbU+YYHdbHLKe38Y6ODi8axNKrdO99H2IIXsRWPzL4oC/7GvZCDbKKW5iLSUB6l8Irz54IA9MVpjm04rQOS2E/pFYWebDdy3ZGh6UJDl+6MCQPsYQntf7E7QmzWIQM28srVtqLk4TXsmz6+Ew2+g+yHR3v6xdn1+Lu6OisrYC3a1cPRzMmy4cfUd1nX3S/4jO9TGHOZZKHq+7R79lJb0YoFm+Ed2y6s9Edk6+vEZiarXN0WCqE+Yaz52ZLyv4CFjLiosDhIzABUYcnGbdcMlvwfKd83UaAskN6kKbrQtK248czKvOyfrnXtS8iQ+729vapvr4Bjmrcgek7/4u3dGB6wId9DXsuk/SHyAIF97AAxI7JaoZhDsdjKI17YcnU72GGJQkxUSw0VeB5SwQmwIUANW0a8hMbAlTwypLlrZurC0fTZlGOdoLJkmtfbM+e3lpQ6ujkUuZEYDr8iDfjIKUnSELTfIhD6WSRAhma18ezmXYkzGOyJ0uPn4thycKKeKci2PcTPG+JwAS4HqCUCVADdeEpeI4EK/DdIj1HFVNm0yYghVIxZTKZf6dffsiFLynD7uSZSgy/c0t1d89dqx9+wIvlxYUEGwk4Yc4+ksZ+j26ks9BAe9ZUeKvjxRGY/poheVGHpShWxKvVrTosFTmEBCbAlwAlF9qy2VRdkKp/CF/wYL6RhBZD8JyN4AGGUhYVMzcs0WSe0sDA3Szo4LClz3zvxd7Slw/4sK/SDyS9TO+G2KMh7ySr5t3X1cFQsDYDZ1hHQ56/RHB1xmm9jYcclnKm/rM9dF9GaYxyCAlMQBKCVNCjcseCBeZBuiJ4zZlNORiqpsxrxWyqLhyG1lvUjq7u7gtxBiUZerdnby8nu+OWPz3UoUpf9mZ/+2pzmaq1le5CKwP9XvKAXOYztWY15NUG98TwSIHz9DA1ckIHpWKYb2iWD59U0cxzHmXeEjJVlsAEgmAV9EypBsFqKxv/XX3IaSToGQrCXtmXMtKVVKQXDIKSn/pP/Io3w/LEkm7kXli9Efr7Shi7m/lMTbuwciO0xR7Eh7o6Il+18NGryxzIW2oPd9VhadJCWJJ6M4rh+Ed1WCpxKEEPE3AruPAQOkd0dXWr3t4+gpKnfBqWJ2TOUdjLjAvpLenW7fVeHp68LZm3FGZYkmcvRR2WFrn/XO+MCUs2emYmIgpLpwlLIDABcK/huntPLSixmIPffBuWJ+7u7FBXl1dV2I+flflMUtMSmja3aoYwhqm3I/q5S19nxI6w0qsUMM9aimL5cJkrPM7hRIArOIB4L0K6ISkh6b77PqT277+HsJQAslqePMTWt8rw7k47VaKEpsW1NU6MBqRU3lkNd6XCzph69b6V7vlLEpRO6C2XgLAk34V5S7j9ukIRAIiDBCN5jhLD7pLp+g989xvdZ1980Kd9lkb2YibcoWH1oYmepju9u3oj1AU3guMYh30Z9Yf6RZ5XdyRlQUkCUlEHpYqtD4nwwbQir8NShV8nCEwA2tLV1X1jZWW57aW/ZBGH3WbYHQ+bTbblQ9/xYHXPbpW5es2r/T7QmVXnV24oG/1BEprk18NCEEF53Ah93piUbFwPDv6BjuxvBL0rjz4+JstQ582WxGcFylLbJb1NWJqntDEsnYroe8kiD8xnBoEJwI5cUXeuCLh1AyabVT09e2o9SQy3S5frjx6+1FP+s/1eVYqZTG1oXq1HyILag3Kr1dqcqTTHJhthSZmwFGO5VoI/mOAUhCe5ZkqAGk5AgJLFHEq2ht3FHJZY5AGbYllxAE176ZWvXVldXdl2DF3QkyQBiYfMpriCuXpt4e6f+8V+H/f9Hd2gv2pxToo8UFV6s9L4YFVbYUnmLt3f1RlfYHrm6aYOpglQQXjKmz+7+juRIXdlE/4mbfcmxRiWpnRYynPVxqbXF4oAQLO2CktBOJJXWRYcqO7Z3b/y8EdV1yuverfvBzo71PmVVbVqKTPJvB157pD0ZqVlXpP02b1rKSyJgXh7l2aa/Q9N6Ciruuf16RCVU+vP/QsClISqOB6sLkPtpoP90/say/C0iMOSHLtRrtggMAEInYQiCUeydesty2R2NHDth3/wVR2YPurbfsvZfI8OTRcszWcKAoQM/buardYCWpJ/Qcu1pcPXQl/gISDPXYo5eO4oWJgFEypqw0PP64JUsAW9U8r878E2Q1HF/Fk+b97s/3SUPUiOhCVWxAOBCUC49vUN3AxJQDNWDj780bUDd6vsxXe92/duy/OZAjL0783l1cT2Nsm8rfkba8pmKdpaEj6qwNREkGqKDlhB71S9is0V7DwPS6yIBwITgHD19Q1QCGjZtR/8vrf3/r+/e6+P+y4BRla2k0a/TUFvkyxrLkPLerL+z22S3qR39XdasjxXWsrLgblgTqysFtcQOg/DkhhnRTw0izE0AACrlj7zfX2yxLivZBnw3ogCjISLC6s3akMBlzx9EOpqbfjdjdry7LbDkgzFG3BhmfZnni7zS/cqLB1lRTwQmAAA7ujs2H3t8c8s+PwVZI5RlL0YPganICi9uWJvYYeNDZgDnU40Y6b4kXsVllg+HAQmAHZcWrjMeDy0HwAe+95V37/DfV0dkQ/9CoLTmyur689wcqxMZH8W19ZqwS6qoFQfYjvdWJa9zC/cq7BUoORBYAJgyzBFgHZVe3btX8p/zyXfK8w4QpOQ5c3f1YHpm8urtWdESUiJKzwFIUn2Q/bnYgTzlDaSYZJ73JnnRWBqLywVIw5LU4QltItFHwAAkbj6X/+I6in/mdffIQhN0qOyHNOD32VVvfWH6q7VwpsEB3mVhSJs3AWV77m+qdrwwOWYH3gv88n6Ohy638v8pXbCUkm/jEX4kTxrCQQmAJHIUQTYiaCXSYem/YSmEMPMjVv70JmRiv1WeAp6w2p/36BnTOYd1T+cN+gpWjZ/H/f3axSWZCieQ87wy/YiLOV51hIITAAITPCC9DLteuGsyly95vX3kDByvw5NF1ejnbezHQk5q6qqlm5UE3furD8Xq8O13Srzq246KMk82Em9jRCW4OM1HwAITIiE9DL5vmJePentcGp4WEJJWJJePQdLepKj03RYKkccluQ6M0pYAoEJAIEJ3rn2d0a6fH4u00ayAIEsb02FaocMw7vfzbA0o555usIR2jYsyYJB8oDYoYjDkvQscXxAYAIQKVbJQzg6Ova8/5OjbyWrUZ+t9YB0Zji8YYelA+4NwwuUOEJNhaWy3gZjCEvTHAEQmABE5tLC5Zx+6ackEJbr3/PpB9YO3J2o7yTDxu7v6nRpuWuvSa+dw2FJMBxv67BU0C9nI647CEsgMAGITY4iQNguj3/hraR9J6lU79GNfIbotU966WQInvTaOewMw/G2DEsTKtpnLBGWYPe6RBEAaEKeIkDYbnzwngeW/9ahq91fnd2TtO8mjf2erkwsD3X12R4zBM+DsEnvUuOgJIs7lPR2hLCEJOEGGAACE2Kz+PmfuJakBSDqdZqV3e7xIwDE3hiRcvKkrBbUM0+XOGp3hKWcWp+vRFgCgQlAKrHgA6yQZcaTtgDERtJr8qHuTjXA8uMN9Zry8WjuF2HpzrCUV9GvhEdYAoEJgBsuLVyWsMSCD7BGFoBY+Y6Pv5/0ylYC04dqc3NYFEL0SA9cbb6Xdz1wExy928LSuH55PoZ6grAEAhMAZ+QpAti2+A//wUIavqcM05OAkObgFAQlGa7Y418ZnGaxh5tBaUBvJf3Hp2L4+DnCEghMAFwyShHAtrW+ffcv/rc/+VZavm8ag5PnQSlA75K6bb7SWAwfP6O3YcISopSpsnoPgE1cWrgsKx69R0kgKn2//Bvvd33tG3tTFxj1dvnGmlpcW1OrCaqW5a6szE2S4YgSEj03pZ55Ok9YmpWbaCUVz1BtCUvSszTP1RJRX8sAYDN5igBRuvKzR5eSumredpXx+hynzlovjPQ6+VxBry8PnlUf7u6s9aQlICyJccJS7flKzxKWkDb0MAHY1KWFyyUVz5ALpFjna3Nv9P+TX32QklDq6lpVb2u11zXHA5+EJBlqtyebyIf2ytylQoqDUk6tP3tqKK7y10GpwBUBBCYAroUlGY5XUayQhxjsmfx353f/3r+/n5K4ZblarQWnJdlirrs7M0p1ZzK1eUkSkroziZ+H9VBaF3uIeQgeYQlO6KQIAGxilLCEuFwd/bv3d81+bbFz7s1eSmOdhJLuDh1MOm4FqPVN/3lt/c9h90JlzedKQOo0Aanb8+GCbTiRxrAkq+Dpl6LejsW4G0/qsMRCGyAwAXA6MAGxufzzP3P9rv/l/+jNXL1GYWwWoIKenY5bf18LTjpErapqSwtIBOGo9ueMSkOvUTNk+erUNdh1WJLn75VUfEPwxFEdlkqcgnABQ/IA3OHSwuWcfnmdkkDcOr71zlsDv/hPH6AkEJMn1DNPT6YsLBX1y/EYd0GeyTaqw1KZ0w+uYJU8AI0UKAK44MYH73ngys8efZuSQAzOpCksycIOeivHHJaCB9ISlkBgAkBgApq1fPiRe5c+831vUBKI0EKaroM6KMmS6fIg2JEYd4MH0sJZzGECcJtLC5elkTBIScAl7/+DJx7MrK5c2/XHf7mb0kAERtUzTyf+eT9mufBSzEFJnNbbOM9YAoEJgC+KFAFctPjffPZGx9xbrJwH22RVvHIKwtK4ud7HvRrqCR2UqHfgNBZ9AHDTpYXLef3yPCUBZ62tLfb/45OK0ARLpnRYyic8KOWUG71KtWGPOixNctrBdcxhAlCvSBHA7Vor27vwi8cyqx9m4TyEThYcSPTjFMwKeK87EJZkvlKesARf0MMEoIbeJXhl9ca1/n9ycnfnN9+iLBAG6e3Iq2eeTuSCAzooyfVdnic15MDunFHrPUvMVwKBCYB3gWnakcoUIDQhaoeTGJZ0UBowQWnMkV1ivhK8xJA8AMHKeIQl+KWzY/fC/z7+/urghxYpDOzA0YSGJVnUoeJIWJIevCcIS/AVPUwAYUnuQEpjgaXE4ScWgsDOwlIpYUEpr9wZfidkvtKoDksVTjcQmAD4GpiKKt4nuwOhhKa+X/nNTNfXvrGXwkAaw5JZ/U6u52MO7dZJHZTGOdVAYALgc1iSCvZ1SgJJsff/efaNnq/86YOUBNISlsw8pXGz9TuyWywZDgITgMQEprKKf3lZIFS7/vLsa72/+aWPUBLYpCGfmNXwdFgqqPVeJZeGVDMEDwQmAIkJS3I38ilKAknUWXnjtb5/8a8+krl6jcJAYP05SwkIS2aeUkm5N/eUVfBAYAKQmLCUU+sLPfRTGkhsBXf1WqXvl3/jAItBQJsyYcnrZ/+YoCSBxLWRARJGZQhemVMNBCYASQlMPHMJ6VCtXtn7W5PzzGtKtZM6KHm98IBZ0KGk3BxCzYNoQWACkLiwVFSsioeU6Xrl1a/t+7VT38EQvVSR+UrSq1T2PCjJNXvM0fId10GpxKkGAhOAJIWlUf3yLCWBVFZ4yytv7/vV/6uXpcdTodbr4esQPMeDkpAhjgUWdgCBCUDSwpJUwMxbQup1f3X2a72lL9PblEwLJih5uZy1DkrDan158DGHy7eog9IEpxoITACSGJiYtwQElZ/0Nv3aKdV17pV7KY3EOF0LGx72Kjm8mEM9epVAYAKQ6LAkdwOPURLA7TrfOP9K3z/79YfpbfLaVC1seDhXyTxHqeB4UKJXCQQmAhOQ+LCU1y/PUxLAJqrVKz1Tf35+7//9bx+mMLwyZ4JSybOQNKBkMQr3HjjbiMwFG6dXCQQmAhOQ5LAkFbNUdMxbArarEJdX3t7z7HPzPX/0xwQngpKNoJRT671J4x5ck2tzwXRQmuR0AwhMQNIDU1m5PdQDcDI4Mb/JSTN6m/AwKOVNUBrzZJdPqvUheDxXCSAwAYkPS3IX8ylKAmizgrx6rbLn9/7oOj1OsTtjglLZo5A0oG71Jg16stsSSGX4XZlTDiAwAWkIS7I07VlKAgiholxeeXv37/7R+Z6pPz/M4hCRkWF3pdr2zNMVj4JSXvnVmyRY1AEgMAGpC0tyZ7OsWEIcCFe1eqV75qVX9/z2mY92fPvSPgrESsN9srZ59BwlMzdJFnHwqTcpUFuKneF3AIEJSFtgYglxwLLsewuv9PzHP726+w++cpjSSF9IMkGpYILSEQ/LvbYUO8PvAAITkMawlFcsIQ5Ep1q90ll58+We//DHH9j1F3+do0CaInNlyiYkedVg1yFp1IQk2XxcfXTOBKUSpyFAYALSGJZkKN608m9ICJCo8LTrj/+iuuuvZh5lvtNtjfTyzc2jOUkmJMmc0HGPQ5KQnjwZfTDB8DuAwASkOTCVlF8TjYFEyy5cOdf10tcXe77yn+7qfG3uEyn52tIwnzbhaNoEJO8a6KYnKW9Cku83oZinBBCYAOiwJJX6s5QE4HaA6vzGaxd3/flXB7q+/tpDmavX+jz/SjIPpmK2cu3Vs96juoA0UBeQfO5JqnfGBKUKvz6AwASkPSwNmAZLP6UBeGRt7S0dmi52vfw3851vfquz443zvQ4FqaCnSJnX+dtePew1ahCSciYcSVA6kqAziwUdAAITgA2BaTJhlT1A5bz4viyMoDoufPud7PxCt/x51wvTnerGjd7gv+l8dW4xe2XxEXX7zZKpLd62UQO6YrZ1ni3C0GJACnqR8ioZQ+0ISgCBCUATYYmheAAakcCV39/fl+p5K+ZBskFASuqz6QhKAIEJwCZhiVXxABCaboWjoAdp2LyOJPwrE5SAiHRSBIC3ioQlAFuQHpWyPJ8tiaHJLPc9XBeShlJyXAlKQMToYQI8xANqAbTA+56munAUbCMpPI4EJSAm9DABfipRBACaVOtpMkHD9WCU0y+y5c1rmnqONiPPUZIHzk5zKgMEJgBNuLRwuagYigegxdAkD7fe399XcCgU5epCUY5gdBtZ1r1kglKF4gDixZA8wK+wJI2K1ykJAG06oUNT0WIYGlC3erLkdaAuGA0QirY1JyFJwpIOSvMUB0BgAtB6YCqrdI7dBxCeozo0lTYEnfw2/2bj/x+EIEUQCoXMT5LepEmKAiAwAWg/LBX0yylKAsBOrK2tqYvfvqBWVpYpjHjJsDsJSEWG3QEEJgA7D0tyB1cq1H5KA8BOSViS0CThCZGTVQtl2N0kw+4AP7DoA+CHImEJQFi6urrVvr4BtTD/LoURjaA3idXuAA/RwwQ47tLCZZk4fZaSABA26WW6fn2JgrDnjFrvSSpRFIC/6GEC3DdBEQCw4a67D6h33j7P0LxwBSvdTTI3CSAwAbDs0sLlUcWqeAAs6ejoVL29feryZabShBCSZMhdiSF3AIEJQLSKFAEAm/bqwLS4eJleJkISAAIT4BfzkFqebQLAqmw2q7p39aila1cpDEISAAIT4JUcRQAgCt1d3QSmzcky4GVCEkBgAuCePEUAALE4Y0ISCzcAIDABDqOSBoBoBEPtyjogTVIcAAhMAIEJAG5K4YIPEpDKwUYvEoCt8OBawGGXFmpr/fZTEgBskmcxrawspyEgTZuAxFwkAE2jhwlwmwwNGaMYANgiQSmBYWlmQ0CqcKQBtIseJsBhZmlxqfDpZQJg5zpz6R3fV8ibM9fJIByVOaoACExAukJTQb+coiQAhO3q1UX13rsXfdrlGROMKsr0IOmANM+RBEBgAghNhCYAaQpLMyYUBT1HFeYdASAwAdguNA3rlwm9jVAaANp148aqmp9/14VheBKKpHeobP532QSjCkcJAIEJwE6D06je5HWAEgH8tba21qtUtVPXxT2yyd/p137zevPvwrB8fUktryxHEZQW1HqvkKioW49IqAUj5hgBIDABAIBQzZ6bzemXXN1f5Tf8J3LzZHibt9mqd3pObf3st/m6EBSYNn9f+/8ZMgeAwAQAAAAAKZOlCAAAAACAwAQAAAAABCYAAAAAIDABAAAAAIEJAAAAAAhMAAAAAEBgAgAAAAACEwAAAAAQmAAAAACAwAQAAAAABCYAAAAAIDABAAAAAAhMAAAAAEBgAgAAAAACEwAAAAAQmAAAAACAwAQAAAAABCYAAAAAIDABAAAAAIEJAAAAAAhMAAAAAEBgAgAAAAACEwAAAACAwAQAAAAABCYAAAAAIDABAAAAAIEJAAAAAAhMAAAAAEBgAgAAAAACEwAAAAAQmAAAAACAwAQAAAAABCYAAAAAIDABAAAAAAhMAACRyWQG9Daut7LepvVW3bDJ303oLUdpAQBSV09Wq1VKAQBSGpT0S1FvBb31N/nPTsq/0XXHPCUIACAwAQCSGpby+mWyhaBUb0ZveUITACANGJIHAOkLSwX98nybYUkM6a1seqgAACAwAQASE5by+uVUCG8loalIiQIAEl93MiQPAFIVmCr6ZTDEtzys65FpShYAkFT0MAFAesJSIeSwJMYpWQBAoutPepgAIDWBSXqChiy89UO6LqlQwgCAJKKHCQDSEZYGLIUlMUoJAwAITAAAnw1bfG8CEwCAwAQAAAAABCYAAFozTBEAAAhMAAA01k8RAAAITAAAn81bfO8pihcAQGACAHjL8sNlK5QwAIDABADw3WlL71umaAEABCYAgO9KFt5zQW+TFC0AgMAEAPBatVot65czIb/thH7feUoXAJBUGV3RUQoAkJaLfiaT0y8ynymMle1mdB3CkuIAgESjhwkAUkQHnIp+KYQRlvSWp0QBAAQmAEDSQpPMOTq6g7eQZcTzDMUDABCYAABJDU0l/XJYb3Mt/DNZ4OFJ/W8JSwCA1GAOEwCkvSLIZAr6ZVStD7FrNLdJQtWE3koEJQAAgQkAAAAAUMOQPAAAAAAgMAEAAAAAgQkAAAAACEwAAAAAQGACAAAAAAITAAAAALijM4lfKpPJDOiXYfM/8y3807J5nY7qWSPm+Sc5S29f1t+j3MQ+5CzuQ0XvQ4WfmnO/EZvHXDVz3ln6XvK7H+B83Pa6mJhj7lD5blXXTPP8Ko4XdYOa1+U67eO54UBbKrayo15NSGAyB3LYBCM5UUd28HbH695Xnmg/XbeVLZ0QhR3uc7MhcLt9OG7p80/orUj1fMd5a/MBaI81cXG3ecxrX9Fig3/Y/NaDxv9Ii+9T/z+nggaSVEjm95LUi7+U1/M+HXMHG1FBwyHf6rlXd97JQ4ArdVuZQBXJtUL+bqiN4zVjrg3T5nhNJ/zmgM26YUq1dhPbRhAMzoX6ENDM7ziTxLKrK5d8XblQryYhMJmDKwd2q6fSh6HfnDAjdZ89Zw68bJNUcID1myF5s8mfBy18zMiG1+MbbpiUVZM9tUhcg3u07twbCvHtB8228Zyrr1/K9My31S4ItjCvFUMbG5CmcTiz4XjRHnCv7ggC0gilcrNs6utUW23orerVsrrVCeFVvdrpyQEeMMm9EHLF1U5FN2a2U3q/zkhwIjwBoTdSR5W9myHNqL9hctw0kM6oWzdLaMwms9E9GmM9U1+/yP4EDfKSD8OYYmoUF8z1Io7jNWS2Y2Z/pkx7oER7IJZzIag7CEeN61XbnQzN1qtHzHa8LkB50Y7udPxA580FcczRXQwOvISn0+ZCWeYnCrT0Ow8u5mOO72rwe3/KNGYnFDdLktCYKKj4b8Zt2SA351sp7Y3xuuM1ruz0OO9EcIPlKXMzVY7VJL8yqyEgr+K/ueZqGRVM2RxxeDf7N7Sjz5g6teTizmZdPdB6q6j18fZjnpyfsp/P6/2eNicqgC0qPL0Vze/8WY9+5/WN2VN6q+jvUDK9E/Dn/MvLcdN/fE8auA6GpUbn21NpPd8aHK9Bx3dZGoDPyvXNXOcG+NWFch6M6m3SnAenTL1BWLpVPjlzvs2b8jni2VcIgtO83iZcu85lHTvYQVA65cEFccuGlLlQEpyAOy/o0vCR3/lxj3/ngX5Tab+uv1d5m5W34EbDu6z8uhm32fmW+OCUgOM1aK5zBKed1RkTJgQ862EIiLJefd2cb76HSNn/Y65d57KOHOzRBASlRhdKghOgbvYoBRf0pN4VlOE40ss8SY+T0w3vpMxxSGxwkjkpCTte/QSntn6zk6bOOKboSdouKI0l9Gs6c53Lxnywg4viswkKSpsFJ+4+I60X9aJa71EaS8lXPmIu8BM0jJxoUCQtKDVqUEyb35nvxyu4sXI2occrCE4M3d86KAW/WXqTNv+dFBMelDa9zsVVr2ZjPthJvSg2Etx9LtGIQooqvopKxhCBdhwzF/hRzoZYGxRpqGNqDXEzoiHv6TGTAFFJSQOw/kZqjl9sYnuBbZST1CfTyu5zFH244RD5dS4bw8EeTvHBDlJyhUYUEn5RnzAV32DKi0K+/7PcKIm24ZXiOkbOt+fN78+X4xX0Ap5S6buxMmIaf+Mp/r3mCEpNGTBDFJM8Isvp61w24h9GUa33KqX9YPebRpSc/DSikETHKILbBMMJhikKa/XLAEH91u/PrNg67PgxC+6Wp7mhLO2Bp0xv00DKfq/SJnxdEZSaIQuKMUSx8XUul5jAZH4YcgfhOMf3NkeU+8vZAgiHNOLLzF2wUsdIMCgT1O9oYDl7vplw+6xiMn9AQkMlDXOdU94LjPCvc5EM0ctG9MOocAcBAGqNw1NJmKDvUOOrYMISN582P98mHDpewQ1Uwm3j4/V8kofo0QsMi7+bgreByez884o7SABQ77hZDQw7b3ylce5Lq46Z5e4HYj5ewRxmbqBu7amEznscISjDIqs3h6wFJtMYOMXxA4CGxghNbdcv9FK0ToaAxzZPpm7YJD0LTV4f4jxegKeO2apXrQQms7NjHDcAIDRZIA1veilaNxRHI9ws7iDHjJ5AD44XQL0aQWAiLAEAocli47ukmK+000Z4ZCvomaH5LO6ws+NVYYVNoOV6NdTheaEGJjORmbAEADFf3BMclqhjdi5YsTEXQVhiaP7OSdicpKcJaMmxMBeCCC0wmZ1iiUgAcODinsCwNEFY8qcRbnpEuAkQfsglNAHNOxXWkuOhBCYzPpm7SACw84s7Q2/urGMkSLLAQ/iszJGpW+CBYXjhH69JigFoyWQY9eqOA5PZiRLHAwBCu7hzF/lWHZNX3JCzHppCPF45wpJVI8x5BFoi16IdL9O/o8BkPrzEhREAQjOouAlV3/jmjnoEoSmMRrhpE0zSJrBujOG7QGvXOL0Vd/IGnTvcgZLyY7WiOb1Vtvj/h7nAA3DIEd0gGq9Wq2mfA0LjO9pGeEWfcztpVPjSJkiCCX28pvXxmqYogKbIPOGy/s20dROu7cAklblafxCei+FICkMuIi1dTMzQDwlPeUe/G4DbTan1myEV85ufb+LfyG98wLzmHG7gFfU1aVJfwyppPLBmkYchh8+7abNVTF0zv8n3GNhwzgV1jItB8LhphE+2cbyKjtebMxuuE5u1DfJ1r3J9cPVBu8Ewo/xm5x62/Q3Xnwfluv9vPsVBdKHu2jafwHpVfjO5dn4zbQUmM2/pKcdCklSuO2pc6H9bNj+aCfM9ZTGLYOMuJxC/M+Y3Wt5BhVZucE3LmwbSqEMX+lqDqK4Bl6awJN/ZpUUepBExaeqYlsKEqZiDc25yQz0q37PgWONiQrU4DNIcL9dWyQ1unrZ6R7ncIPDWXx9cClDBMKNxqoZtw1FZ3bqRXqFI7ri2BfVqu2XjU706Ya67LYeEljdz0lUd2OQA5dv5Di1+3wFTuBVHvnezW7HJ71eMex/Stlk+7vmYj3nYm1zMCxEem5xpgLjyex8N6Xvlbe5nyNdbV8p+Oopzz5xzE+ZObpzfd77V882x41U1NxmGLR6rYLl0l77zaIjfr+hZO6fRVjHHKB9xve5bvTqa4nq15XOj5UUfTLd73ElR7hY8pr9A3vQKWSV3CPVW0psc8KPmzhUAu07r7SH9u5OLeimqD5U7bDJ3yPzeHzPXmziVUrZqXtGBu/gzpo4ZjuLcM+fcuGlUnDB3feP4zsNtDMdz4XgtmHK7S+9/weZwKnlvOVZ17YEpB34zE6ysWTsHTurtsBwbc4zKCo3KKKhXI1tQZ0O9+oQL9Wqr/6ClwGRWLIqz212CyhNRBaVNDjrBCbDrjLmgF+IeOiHXGbnemOA0E9NuyBCCVAy5cWAonjQojpqgVI7hfJs3iy7kTMMmKifNd660eLyGVfxDJ+XGijSQi1HP5THtgeD6EGcDcFDtcAUwj82Y3+yACUksgrH572TYlFHc9epk3e8mrnb0oFmLwU5gUvEudRscbCeWmDV3HYfNfgEIp7H6hLnzVXFpx0xwkt/7kyqeu//j5oZV0sXZ6DtjGt4lB863edPjdNhyUA9+c+0G8jhXcZSG1mPmxsq8A9cHaQA+EdP1QRxL2UOvg5FGwy78Zh1W/ztxsV6Veu1EXPVNKz2zTQcmswDCSIyNqIJrK8GYSq2g1nubFvhdAjuq/HKu3BDZ4jcvDcRhFX1vU79K+B1k81yZuOqYoyaou1bHTJugbqO3qd0heHG3CURwA7Xs2PGajOn64EKAjTIAHI1zpJFHnPydNPjdSN12WEXf29TS6I2s4z9EuejkPWhEyd2NvGKIHtDWRd1Ufl4sjWvu0uVV9L3LYwnvZYojEM6ZOqbk+DknlfrREN+yrSF4jjTOj7p4A7X++mBCbhyjT0ZMkE2qkyYAlBS286TLv5MGv5tpc7Mh6qGt4832MjUVmMydv6gndQZhadqzgz3D7xRorfHj207X9S5H3SgqJvEkMGPJ46hjhj2qY6SRKHdhdzKaYadD8OJsE8i+H/alsWyuD0/G8NFJ7GWSY/+YmX/DM6eaq1e9Ow9MvZqPuF5tupep2R6mqCvpMyYszft2sNX6nWdCE9DcRb3k8xeIITQltZcp6kUtZjytY6ZNHbPQ5ncOax5w1G2CBeXRDdS64yWN1qMRf+ygCbRJIedtjuF31Ks2659mepm2DUwx3Ek67eJYckITEPrvvJSELxLDxT1JjaE46hgvw9IOQ1MYQ/DiOl5ehqW641WKITQVE3J5OG3OW3qVmvNkwurVMxF9XH8z9WozPUxR3vmb8XF4DqEJaMlUEn7nDS7uUf3ek7bEeJSNO6/DUhuhKZQheDEGdq/DUoyhadAs0e97WEpUPRFBeSVtOKYc/6jWBtj2GrllYDJLVEb1kNoZUwEkpQFFaAIaN4CSOil5VEWzWmZ/UobcmEZdVL0ViQhLG0LTVpV86CtPmjZBlCvj5ZPyXB0TmqKc0+TzjRXCUuvXtsQ9q89cq6NqL2x7kyHryA9uIUkV2YaDXVAsOQ7cDBVJHV5hhjsVIwxnSRBVo2ghieeeaYQ3eobJCUsrT0bZKDuatIeQmh6AqIbvHvF0vuMZwlLr19EE16vTKrrnNBXaCkxmAlQUlXIiw9KGg82PH1i/a1hO8hc0DaIolkU90soD91xk9n8swqBeSeg5V6w752T4ymHzdzaOV1RB/WRSl46OePiub22PGdpLLTuRtBsLm1zjovjNjLYVmMw/7I9gB4spONgyJOI0v2ukmNwYGU/Jd42qwve9lymq/T+RghW2pCzlLqzNZdKjahPMhDznytXjFcXIE5/CRyJ7gS2TGyQTKfmuUVwT+rd6jtl2gcn6wU7gJLWtDjZD85BWE2mpCE1PxkkCkxP7P2Wjt8XBc06eX1K0/BuLasTJaEquEVGcl4Nm3pkPCkntBbaomKJ6tayi6XjItxOYjkRxsNNyVpuTejyFP+hhhbSTRtBEyr5zUdm/QZL3tXDM8C7qGI7XRhNpaTRHOHy34EFxnAlzcZKUmEvqsNWYr+et9TBt1SXFwd7RBbIU0QXSJQMKaTeRtmEW5vvaDon9Hi8dHFXvUpmfnzfhfC4NvYExNABdv0akabi2b+eOa/VqRdnvZRrcbLGUbIw/sCInOZCOwJTS712iMRTrfnOt9SvgprEBWI6gATjk+Gp5EwzFaz1kprB3Kcr2RL6VwGR7GNVcWg+2uUDybCakxem0TuKN6G4YgamxGXqXvDpecyluABYTcPx2ctyL/LxaltbfSrDy9FQcv5fNAtMIB9v7hAy4YJLvb5V3cwTNfBjbD6vlGhve8cpFcLxS22g2N1ZsNwBdvU4QlmhDu/j9h5sKTBGNiU/7wZZGFCvmwVYFXHZkVxbSPpHXfH+bv/V+Dx9OGUUdwwRyfxrbCxwv6wE/7+B3TvOwsp2YSfqjeBy4vg81FZgiuDieSft4VTNEiQodXNQoBx8atL7t72me5eJVY3sy7ccrghsrQykMiUlVTnsBmOvFGZuf0ajzqFFgGuBg05gMEavkcY5TDgSmKPeXOsav48V1IoJycPB5TCUOOb8Xh6/zw80EpjwHO3V3CWx27w5xqO+ouAY4x/mtpzgw5ahjCEzGAs/fiey8zTn0XWdYGa89LGYTWb060ExgstmYm+NHcvOkly5FV1bLY/hKchogLlWInFfR/NZ9C+A2b6JMcd6Frt/jRo9P14k09USXOOLtXd8ogpu/F7nRb3MYa76ZwGSzMuPimMLySFGPCm6ZpghuUyGAc0318Nqd53hFyuaNlZxD35NeRX4v3rUzsjSiEtuIaoXtO7I06JJR4fJbd7M8+n0phAga4Jx3/C5oELsdmBhpxO/Fh/LYeg5TBD0BHGwHy4MlKhNlnnOb3zrlDFuNhpDrnjJFfJs0BAmOOeeHD+2d/i0Dk7LfE8DBTmd50MN0uzznNhf2MDm4AlYsuHMdOoZTJyfwu3KNIDC1f33jhlCM51I24oNNZeZuecxR6YLfup+ByaPfWM7TaxjCN0MRRMqVobvUDfBSliJABBexPMUbWeO2TPE6GSC5M2g/MNEQ8wurGd4p8dcJhmG2jRXyCExIQeVFD9Ptkj58ijv9ANB6mCBEAgQmOI6H10Yn6QGywiEGAGzAMEx429YgMCGSE49J6ZEFyDLFCwBwED1oCE3Uc6UJTIgqqROY1oNjjlIADSYAAPxBYELA9mRTAlM05cDiAkjrdYa5kvAaIzEAAlNwMchR5LeVR96VfTGTTRcsfkSeI26/HJg0jBRjrqRfRigCQj/ga2CyfXeawOT2xdHqwg86IFIZ2A1MTKhFqnGNgeds9jCxLDUQVmCK4O403c1ul4ftwJznkFu9C07vElzH0F+OV33AzVHEt6E8AB8Ck2FzWBYXA7cDBIHJbuNg1PPjB+wIN+W8Y/t40SaI7vzlhhoQcmCy2ejKU+ROV+62G9yjKT/ets//Cj8peGDG499Y2ti+pnC8bmdzXhc31ICQA5PNCyTzWAyzGk6/S/tUrVZtX1AHUz4Egx4mwO6dbhrg4dYJBKbo2gS264cKpQz4E5iiaDT6ouDofk1x/K0F5EECE2D14cr9LM3sVZ0wwk3UyMIjgQkIOTCVLX8mgcntcrB9/McJyFbMsaQ4PFHx/LfG8aJN4F056PqhTBED4QYm23epj6T9jpJ5/tKgo7tn+6I6mNI7wAzHA6K5xtAA9+vakvrjZYbj2WwT8MgJIOzAZO5S2/5xFVJe7s5+/4juQqWql0lXhoUIAnJZAR4w82JsrsY6GMF8EAJueI6wvLj1NgE31ICwA1NEF8i0DssKnjsx5vhuWp/HlLJexigCMoEJNMKpY2wE3GnLATeqa6TLbYIj1A8AgamRQXPXPY2KHuzjpOX3709LBWmGX45Y/piFCFY4BHxqwI2Y3x48CbgpHqpfTMDxAwhMKQ8OYTeec8r93qUoAlOtgqQy9Op4Ab6ds0WK2ZsGd79KYa9gRG2CuQiWhwfSGZjMPKYzlj9bepnSVqFN+LCT5uI6F8HxLyS8Mswr+71LBCZ4J6JrzEiKRzL4eI05nsK5TMWEHDsgnYGJC6SVxrNMQj7i0S5HcfwnEj4MoxTBZ8hwPCpE0AhP5zUmyoAbxUprpbSUqbmhNkaZAgQmlyrNuC+MUmFPeLbbUVxkEzsMw/SeDvL7AWK/xiS+wSh1jN4mLT+yIYpyHEnRCodRtAnmmN8KWA5MZlje6Qj2YSgFQ/NKyt3nLm12/OUiG8UdxcT1MppGy/EEVbqAz9cYWbY66fNj5MaJjGAoWxyGGNXNmVLSR56YNs9QROcFAJuBqa6hH4XjSb2rZCqvI57ufilhnxPF8R6I8PvMcPcQnovqt/JUUh+Yrb+X3DQJ5kpKj9op/XelsIcimmF5ZyL4Sv1Jbuibtg431IAkBSbzENO5iPallLQKzYxRPkVjZlsjCepllApqKMLPAnwPTAsRfVY5gXVMQb8ca/B/jVn6vlHVCTLypJS0k90cj6i+1xSr4wERBaaIG2X9SarQzPfw+i5ZhMMyxXHfj71pvES1bLws9pC4BgXSxVxjorpO1noukrIIhLnebHVDbkiFPETPLDAT1U3UsSQNpTTn3aQ5D6NQ5AoDRBuYpFEW1R3ARIQms//lCC+MNkXZKC/72pgxwyyi7E2kdwlJEWXDbtDn60wLYam+Tg17iF6Ux+upJCwNb8q+rKKbyzxnRggBiCowmTuAUTbOvA5NCQtLwbDMmYiP/YBnx1wq9Gcj/MgFAhOSwgwbOh3hRw55Xsc0G5bqhTlEb1JFdxNVmcDnbWiqC0tDEX5sUQGINjAZExFfIL0MTeainpiwtOH4R92YGfDkmBdV9PPUJsyNDCApom7geRma2gxLG7/zjsJHDDdRvQ1NdTdQowxLcwzXBmIKTDFdICV0nPXlIlnXcE5aWFLm4jsX4Uc6H5rMc0+kXI5H/NH0LiFxYuhl8rGOKamd35wJa4jeRMR1gnehKaawJMYVgHgCU90FciGGfTxllk11ueE8GUPDOWrFiD/P2dBUVxGOxfDx9C6Ba0z4dUzJ1Rs08kwivU2HfL2R95put4fNXIOKMR2rCddHIJjFKs6q6G+gTpmFOQDEFZhi6mUKHJMKw7XhE2aif0X5+5ylVirIkor+jqKEpopLx930JJ5V0d81FDLUoqiAZF5j5Fp6MqaPt7UMdxgN72lL1xtZgOBsuyvRmTphJoZiOWbCXt7BoBTcQH0qpl2gdwmIOzAZcXTD1zeez5o7gbmYL4o5c1GUif79KTpf4mis9++kUg/xmOfNXd44exKpDJGGa8xCTJ8d1DHFuHsw6q43T0VQx8hKdO0utx7XNUnC3vNmv3MunLimjpLQH9cN1JM8yBxwJDCZXqa4G23BUIKJqC+UJihJhf66SkGvUoPjX9IvUzF9vFTq5ZiOuXzv51U8vUoBhlogDdcYqWMKMe+G3BSpxBGcTFAqx3C9OaLaGKJnVlE9GeOxkv1+Pc4bqRGH283MKVbGA9wJTOYCKY22MzHvt1yUjtVdKPOWL4jDptH8ukr+XKXtxBmYR8wxtx6WTSUYHPOxmMt8wYFGJBBVaJI6Zirm3eg31/r3TB0zavl6U6gLSiMxfed2h+gVVXy9goGxqNoDG47ZtIr/ZlqtXmZuK+BYYDKk8TbnyHeQC6V0zVdMQzqUi6VpMMv7VdT6nJUxTpdaY0YqiJMx70YQluWO6HhY4cn0Jo3XVYKuHPOimd8BpEXBgUZ4fR3zrL4uzAfhaac9T+ZaUzDvJw3dUzEGpY1aCoeO9Apu1h4IdU6aOfb1x2zIge98ktEHgH2dbTaa580dt7MOfZdB05CWBSLkf8sdSmn4yoWtvM2/lcpvuO51hFNj6wa8qSDjnr8llZUMg5DhenPmOMtWaeYp5yZc58wxzztS+W0kQ/FYRhypIjcIYngg9Hb6TYN8zFw/ZMGDiqlngrpmM7m6a82wqa9c1FZvtjTYdXmcNHWwa+2BoG4IjtN0M70x5kZcztQNQR3h2pzlGcVQPMDdwGQukHJ3/0kV32ow2xmpCz7HOdShNmbmHWzMDG5ozNRXKPMbwvGQJ0XNUDyk+TojjfDTyt3e/SGzJWk+6/gOerOLys0bT7fVDXX1w8wmITfncKC9o35gKB7geGAyFVrQ5c1wtXQ2Zly6o7hVoyaNjRcgEQ14tX53f4iisO60Wdin3TohuJFWVn6sHuv7OTXOqnhAdLI7fQP9g5UL5AxFmUpFjr2bjRcgCczd8zzXmUiuN4UQjte04vEHUThJ/QB4FpgMKrT0Nmakkl2gNEI1E0bjBeA6g2auN2GGHNOQP0GxWnNGlzGhFPAxMNXdBZyjSFPXmOGOYviNlzzFANxxnckTmuxcb8KeB6Pfr6hfTlO8Vo5XgWIAPA1MdaFplAotlY2Zkop/qfEkYBIvQGjyOizVHa8Cocmf4wUgosBEhZb6xsw4leOOw1KeSbwAdUxSGt+EplDrh1HCEpCQwESFlvrGTEExl42wBBCaXCYLPAxH1fgmNIVWP1QoCiBBgWlDhcacpvTJE5paMkdYAtquY7jWtB6WCjEcL/lMFoJo3Qz1A5DgwFRXocnzM6Yo5lQ1ZFgGuLXKcJjKECA0ReBknKtvmoUgjnIYmjZFWAJSEJiCxrPepELjzlI6QxNheXOnFRN4gTDqmGHFkK+tyJCuoy4sRW0WCHpMMZyymXBL/QCkJTDVXSSLXCRT2ZDJ05Bp6Em500tlCIR2vSkoei8aCYZ0lRw6VmW1PvqEnkGHwy2AGAJT3UUyp7czFPvNC+MTKuG9MKYh8ySH+2bj5bAukwmKAgj9WiOh4DAN8ZtOKkeHdMkCBqZnkMdROBxuAcQQmMxFUnodRk1QSHNvk/S65HRZTKakITNhGjJpXgTE2cYLkKBrTTCvKc0NcbnOPiG9FK73YpueFEafKHXCrFxI/QAQmG67SEpQyKn0DdeSiuyxNA7HqlsEJG0NmaBXaZwheEAk15r5uoZ42m7SyPV12KebcXWjT9I4fDuoH4r8cgEC01aVWsFUakkfQiF3z2TeSs5UDjRkkt+QCcaic9cQiKkhLtdctb7oUNJ7MKaUxzdmNrQH0hBygzYB9QNAYGqpUpOeh6MJvFAumMo6x7yV24+5Wu9tSuLqifXHvMTRBmK/3hRVcnswguF3iRjuWxdyjyY45NImAAhMO7pQluoulL4Hp/pGc5GhWA2P97xpyDyUkIYMxxxw+3pTSND1RurIo2bUwmQCj1fJhNwk9Q7KefcQ9QNAYLIRnHwbqieV2JM0mls63hXPGzIzpuEywDEHvLre+NgYl6F3j5mgVEpByC2a4OTrjdTgRtpDZu5yhV8hQGCyEZxk2NZh05B2uWKT/XvCVGITNJpDCU4uH+8Fs4+PmTHoJY4g4N31Rm5wDJjGuMuPu5CgcNI0uvNpmwdrglNwI/UJ5cejSSTY1t9IIygBnuv04GIp47KlIa0ymYwsSR5s/THvmly0ZSjEJAEp3IaMHG99rAfMcZZFIoYc2T2OOZC8a05Jv5TqrjmyHXEgJMm1psSiALcdq9r117FjFZDRBiVTPxCQAAJT/BdLE57yav15G7KNRPDxcseoLFuaV7qL8FjPm8pHGjK5uspxJMLdmDPHfNIcd0ISkIJrToM6RkY72LxJJ43t6bo6hgZ38/XDQN1xki2qG2xB/cAxAwhMTl8wgwuVMpVbzlRqsg2Y10AzjWypsIIG8bT5s7xWuMMX+7GWikhWFJowleNwXeUox30wxAqwvtHCcQfSe91pVMfkzHVH1b0ONNlInzKvN+sWU7+UKe0dh6f6m6kDdW2BYXPMdlpPTNUdt9pGQAIITD43qivBRROJrhxva8iYSjJovASVYzOCClClsNFi8/vSkGjsMYvvPd3kf/MYh2HHdQwBx8M6okFdse11LKWhqGTxHE/6KA3q1WTVq7dfO/QFgeKOkb54yw/M1jCzEzxBHAAAAGhfliIAAAAAAAITAAAAABCYAAAAAIDABAAAAAAEJgAAAAAgMAEAAAAAgQkAAAAACEwAAAAAQGACAAAAAAITAAAAABCYAAAAAIDABAAAAAAgMKXMAEUAAAAAEJh8Vrb43sMULwAAAEBgQmP0MAEAAAAEJq/NW3zvIYoXAAAAIDD5bNrmm2cyGYblAQAAAAQmb81bfn8CEwAAAEBg8lO1Wp22/BF5ShkAAAAgMPlsjsAEAAAAEJjQmM1epkHmMQEAAAAEJgLT5goUMQAAAEBg8lXZ8vuPUsQAAAAAgclXtnuYZFhenmIGAAAACEzeqVarsrT4jOWPKVDSAAAAAIHJV2XL7z+WyWRyFDMAAABAYCIwNVakmAEAAIDmZarVKqXgwoHIZAb0y3sRfNRD+phXKHEAAABge/QwOcLMY5qK4KNKlDYAAABAYPLRZASfMcKKeQAAAEBzGJLn0sFYX5Th9Qg+ak5vw6ZXCwAAAMAm6GFyiJlbFMWwvEHFAhAAAAAAgclDpYg+51gmkxmluAEAAIDNMSTPxYOSyVTUei+QbQtqfWhehVIHAAAA7kQPk5tKEX1Ov94mzZLmAAAAADagh8nFg7IeYCom0ERhRm95FoEAAAAAbkcPk4NMcJmI8COH9FampwkAAAC4HT1Mrh6Y6HuZhMxpkp6maY4AAAAAQA+Ts2LoZVImnJ3VYa3IEQAAAADoYXL74MTTyxSQeU3j+vwocyQAAACQVvQwOcz0MhVj+niZ1/S8Dm0ytynP0QAAAEAa0cPkw0GK7rlMW5lS68udT7KaHgAAAAhMcCkw5fXL8w7t0hkJTnor89BbAAAAEJjgQmiSBSCOObhrc3qbNlvFbPOstAcAAAACE6IMTAMmlAx6+hUeYwEJAAAA+IZFHzxh5g0VKAkAAACAwITGoamsX05SEgAAAACBCY1D07haf0YSAAAAAAITGsjrbYFiAAAAAAhM2MDMZyI0AQAAAAQmbBKaZMW8AiUBAAAAEJjQODTJw2OPUhIAAAAAgQmNQ1OJ0AQAAAAQmEBoAgAAAAhMaDs0PaFYCAIAAAAgMKFhaJI5TXm9zVEaAAAAAIEJd4YmWT1vWG9TlAYAAABAYMKdoWleb3n9xxOUBgAAAEBgQuPgVNQvh/U2Q2kAAAAABCbcGZqm9SZD9KS3iQUhAAAAAAITGgSnolqf23Sa0gAAAAAITLgzNFX0VtB/fIjgBAAAABCY0FxwYqgeAAAAQGDCJsEpp7ejisUhAAAAAAIT7ghOsgx5ySwOIb1OTxKeAAAAAKUyupFMKaDxyZHJDOiXfN02tIO3e0yfa2VKFQAAAAQmJDlESXDKmS1v/nqEwAQAAAACE7B1mJIeqeFN/m95HtQ8pQQAAAACEwAAAAAkAIs+AAAAAACBCQAAAAAITAAAAABAYAIAAAAAAhMAAAAAEJgAAAAAgMAEAAAAAAQmAAAAACAwAQAAAACBCQAAAAAITAAAAABAYAIAAAAAEJgAAAAAgMAEAAAAAAQmAAAAACAwAQAAAACBCQAAAAAITAAAAABAYAIAAAAAAhMAAAAAEJgAAAAAgMAEAAAAAAQmAAAAAACBCQAAAAAITAAAAABAYAIAAAAAAhMAAAAAEJgAAAAAgMAEAAAAAAQmAAAAACAwAQAAAACBCQAAAAAITAAAAACQQv+/AAMAJS6WUOYN+AQAAAAOZVhJZk1NACoAAAAIAAAAAAAAANJTkwAAAABJRU5ErkJggg==;" parent="1" vertex="1">
          <mxGeometry x="500" y="-115" width="210" height="210" as="geometry" />
        </mxCell>
        <mxCell id="Ei1wUv65lXnRTl3qjksU-41" value="Base Pilot" style="rounded=0;whiteSpace=wrap;html=1;fillColor=none;verticalAlign=middle;align=center;" parent="1" vertex="1">
          <mxGeometry x="199.99999999999997" y="-79" width="110" height="40" as="geometry" />
        </mxCell>
        <mxCell id="mg8s2DDJ6v8Yepw18GyZ-9" style="edgeStyle=orthogonalEdgeStyle;rounded=0;orthogonalLoop=1;jettySize=auto;html=1;entryX=0.282;entryY=0;entryDx=0;entryDy=0;entryPerimeter=0;" edge="1" parent="1" source="Ei1wUv65lXnRTl3qjksU-11" target="Ei1wUv65lXnRTl3qjksU-17">
          <mxGeometry relative="1" as="geometry" />
        </mxCell>
      </root>
    </mxGraphModel>
  </diagram>
</mxfile>
